<svg xmlns="http://www.w3.org/2000/svg" width="40" height="40" viewBox="0 0 40 40"><defs><style>.a{fill:#fff;}</style></defs><g transform="translate(0 0)"><path class="a" d="M1158.737,1154.972a20,20,0,1,0,20.006,19.995A20.015,20.015,0,0,0,1158.737,1154.972Zm0,37.758a17.758,17.758,0,1,1,17.764-17.764A17.777,17.777,0,0,1,1158.737,1192.73Z" transform="translate(-1138.743 -1154.972)"/><path class="a" d="M1158.029,1160.1a14.162,14.162,0,1,0,14.169,14.156A14.157,14.157,0,0,0,1158.029,1160.1Zm0,3.994a2.4,2.4,0,1,1-2.39,2.39A2.392,2.392,0,0,1,1158.029,1164.1Zm8.263,6.293H1160.7a.709.709,0,0,0-.705.706v3.71a7.328,7.328,0,0,0,.182,1.582l1.673,7.078a.789.789,0,0,1-.592.944,1.127,1.127,0,0,1-.181.023.79.79,0,0,1-.764-.6l-1.309-5.542a1.03,1.03,0,0,0-.842-.808,1,1,0,0,0-1.081.74l-1.422,5.6a.786.786,0,0,1-1.548-.194,1.133,1.133,0,0,1,.023-.193l1.718-6.737a7.149,7.149,0,0,0,.2-1.707V1171.1a.7.7,0,0,0-.694-.706h-5.553a.809.809,0,0,1-.8-.58.788.788,0,0,1,.751-.99,142.586,142.586,0,0,0,16.729.182.736.736,0,0,1,.58.6A.763.763,0,0,1,1166.292,1170.39Z" transform="translate(-1138.036 -1154.264)"/></g></svg>