<svg xmlns="http://www.w3.org/2000/svg" width="61.82" height="57.962" viewBox="0 0 61.82 57.962"><defs><style>.a{fill:#fff;}</style></defs><g transform="translate(-1058.476 -805.094)"><path class="a" d="M1066.075,813.758c-.26,1.475,1.764,3.516,5.105,4.228.128.027.253.056.384.079a10.928,10.928,0,0,0,1.114.135,9.571,9.571,0,0,0,1.537-.009,5.555,5.555,0,0,0,3.44-1.335,2.51,2.51,0,0,1-.459-1.933,2.469,2.469,0,0,1,.234-.676,2.518,2.518,0,0,1,4.738,1.553,2.489,2.489,0,0,1-.249.705,2.523,2.523,0,0,1-2.16,1.38c-1.091,1.551-3.3,2.516-5.949,2.6a12.548,12.548,0,0,1-1.528-.047c-.366-.033-.736-.077-1.112-.143-.13-.023-.255-.054-.384-.08-4.44-.917-7.47-3.873-6.944-6.855a4.189,4.189,0,0,1,1.414-2.421,8.237,8.237,0,0,1,5.091-1.776l-.407,2.3a6.418,6.418,0,0,0-2.676.816A2.317,2.317,0,0,0,1066.075,813.758Z"/><path class="a" d="M1117.47,832.607a7.69,7.69,0,0,1-1.189-1.382,2.512,2.512,0,0,1-.378-1.606l1.893-10.736c1.295,1.41,2.855,2.412,2.428,4.835l-1.288,7.3a3,3,0,0,1-1.168,1.888C1117.666,832.8,1117.565,832.7,1117.47,832.607Z"/><path class="a" d="M1110.224,863.01l-40.587-7.156a5.078,5.078,0,0,1-4.059-3.979l.023,0a14.953,14.953,0,0,0,1.608.188,13.684,13.684,0,0,0,1.7.011,1.983,1.983,0,0,0,1.249.8l33.19,5.851a2.089,2.089,0,0,0,2.365-1.7l7.171-40.667a1.973,1.973,0,0,0,.005-.609,2.029,2.029,0,0,0-.676-1.27,2.008,2.008,0,0,0-.977-.475l-33.19-5.852a2.035,2.035,0,0,0-2.355,1.649l-1.206,6.838a7.9,7.9,0,0,1-1.547.067,9.5,9.5,0,0,1-1.115-.128c-.137-.024-.253-.061-.383-.088l.875-4.96h-.007l.394-2.232h.006l0-.022a5.059,5.059,0,0,1,5.859-4.1l33.19,5.852a5.053,5.053,0,0,1,3.719,2.877,5.176,5.176,0,0,1,.334.978c.018.078.029.16.043.24a5.061,5.061,0,0,1,.072,1.164l.018,0-.034.189c-.013.136-.027.271-.051.406l-4.867,27.6a4.877,4.877,0,0,0,.706,2.787,6.311,6.311,0,0,0,.528.748c.381.465.808.877,1.213,1.286a9.188,9.188,0,0,1,.913,1.038,3.548,3.548,0,0,1,.656,2.914l-1.287,7.3A3.025,3.025,0,0,1,1110.224,863.01Z"/><path class="a" d="M1114.845,847.491a7.655,7.655,0,0,1-1.189-1.381,2.506,2.506,0,0,1-.378-1.606l1.934-10.97c1.295,1.41,2.856,2.413,2.428,4.835l-1.287,7.3a3.011,3.011,0,0,1-1.329,2Z"/><rect class="a" width="1.512" height="22.039" transform="translate(1081.605 843.08) rotate(-80.001)"/><path class="a" d="M1068.254,836.833c.375.066.745.115,1.111.153a14.366,14.366,0,0,0,1.523.068l-1.706,9.674a7.9,7.9,0,0,1-1.547.066,9.309,9.309,0,0,1-1.115-.126c-.136-.024-.252-.062-.382-.09l.874-4.959h-.006l.394-2.233h.006l.465-2.634C1068,836.778,1068.124,836.81,1068.254,836.833Z"/><path class="a" d="M1070.908,821.788c.374.066.744.115,1.11.152a13.869,13.869,0,0,0,1.524.068l-1.706,9.674a7.762,7.762,0,0,1-1.548.066,9.315,9.315,0,0,1-1.115-.126c-.136-.024-.252-.061-.382-.089l.874-4.96h-.006l.394-2.232h.006l.465-2.634C1070.653,821.732,1070.777,821.765,1070.908,821.788Z"/><path class="a" d="M1065.04,839.257l-.406,2.3a6.447,6.447,0,0,0-2.676.815,2.32,2.32,0,0,0-1.189,1.471c-.261,1.478,1.764,3.519,5.1,4.23.128.027.254.058.384.081.382.067.752.107,1.114.134a9.572,9.572,0,0,0,1.537-.01,6.362,6.362,0,0,0,2.881-.885,2.494,2.494,0,0,1-.1-1.233,2.519,2.519,0,0,1,4.962-.009,2.452,2.452,0,0,1,.01.885,2.488,2.488,0,0,1-.648,1.287,2.517,2.517,0,0,1-2.276.761,2.38,2.38,0,0,1-.289-.081,8.523,8.523,0,0,1-4.93,1.573,12.156,12.156,0,0,1-1.506-.044c-.378-.033-.759-.077-1.145-.146-.125-.021-.244-.051-.366-.076-4.45-.912-7.489-3.873-6.963-6.86a4.2,4.2,0,0,1,1.415-2.421A8.247,8.247,0,0,1,1065.04,839.257Z"/><path class="a" d="M1067.693,824.212l-.406,2.3a6.448,6.448,0,0,0-2.676.815,2.319,2.319,0,0,0-1.189,1.472c-.26,1.477,1.764,3.518,5.1,4.229.127.027.253.057.384.08a10.661,10.661,0,0,0,1.113.134,9.708,9.708,0,0,0,1.538-.008,6.036,6.036,0,0,0,3.147-1.075,2.494,2.494,0,0,1-.268-1.618,2.524,2.524,0,1,1,4.972.876,2.486,2.486,0,0,1-.308.818,2.512,2.512,0,0,1-2.464,1.241,8,8,0,0,1-5.485,2.056,12.324,12.324,0,0,1-1.527-.048c-.367-.033-.736-.077-1.112-.143-.131-.023-.255-.054-.384-.08-4.44-.917-7.47-3.873-6.944-6.856a4.191,4.191,0,0,1,1.415-2.422A8.244,8.244,0,0,1,1067.693,824.212Z"/><rect class="a" width="1.512" height="22.039" transform="translate(1086.152 817.3) rotate(-80.001)"/><rect class="a" width="1.512" height="22.039" transform="translate(1085.242 822.456) rotate(-80.001)"/><rect class="a" width="1.511" height="22.039" transform="translate(1084.333 827.612) rotate(-80.001)"/><rect class="a" width="1.512" height="22.039" transform="translate(1082.515 837.925) rotate(-80.001)"/><rect class="a" width="1.512" height="22.039" transform="translate(1080.696 848.237) rotate(-80.001)"/><rect class="a" width="1.512" height="22.039" transform="translate(1083.424 832.768) rotate(-80.001)"/></g></svg>