<svg xmlns="http://www.w3.org/2000/svg" width="63.521" height="49.585" viewBox="0 0 63.521 49.585"><defs><style>.a{fill:#fff;}</style></defs><g transform="translate(0 -36.758)"><g transform="translate(-0.001 36.758)"><path class="a" d="M58.989,51.737c-.257-1.931-.293-5.257,1.5-6.374a.672.672,0,0,0,.084-.075c1.466-.469,2.481-1.127,1.685-2.013l-21.63-6.517L5.6,41.628s-4.011.573-3.652,6.8c.195,3.391,1.258,5.057,2.188,5.877l-2.874.866c-.8.886.217,1.544,1.683,2.012a.58.58,0,0,0,.084.076c1.792,1.118,1.758,4.443,1.5,6.375C-1.907,65.466.4,66.062.4,66.062l1.412.342c-.994.9-1.98,2.6-1.8,5.829.358,6.23,3.653,6.66,3.653,6.66l22.92,7.45L61.19,77.963s2.312-.6-4.129-2.425c-.259-1.928-.295-5.253,1.5-6.374a.53.53,0,0,0,.084-.075c1.467-.469,2.48-1.127,1.684-2.012l-1.5-.454c1-.6,2.509-2.185,2.745-6.291.163-2.824-.574-4.478-1.427-5.451l2.972-.719S65.429,53.566,58.989,51.737Zm-28.937-.08,5.818-1.2,19.66-4.04,2.929-.6a10.141,10.141,0,0,0-.742,5.564c.034.341.073.652.111.889l-3.206.8L29.808,59.242ZM5.063,57.721l2.929.6L26.872,62.2l1.649.338h0l4.946,1.017.244,7.585L8.209,64.8l-2.514-.625c.037-.237.076-.548.111-.89A10.144,10.144,0,0,0,5.063,57.721ZM3.925,48.132a4.918,4.918,0,0,1,.857-3.465,1.556,1.556,0,0,1,1.136-.47,1.927,1.927,0,0,1,.287.023L21.3,49.139l7.529,2.455-.247,7.638L7.456,53.31,6.341,53a.675.675,0,0,0-.139-.021C6.115,52.97,4.027,52.778,3.925,48.132Zm22.724,34.9L4.413,76.8a.662.662,0,0,0-.139-.022c-.089-.006-2.178-.2-2.279-4.842a4.923,4.923,0,0,1,.857-3.467A1.559,1.559,0,0,1,3.988,68a2.008,2.008,0,0,1,.288.022h0L26.895,75.4Zm29.138-7.85c.035.342.074.653.112.89L27.878,83.045l.245-7.585,5.991-1.232.885.214,3.316-1.078L53.6,70.224l2.93-.6A10.132,10.132,0,0,0,55.787,75.184Zm1.543-10.308a.538.538,0,0,0-.15.023l-2.113.592L34.945,71.134,34.7,63.5l6.6-2.153,15.986-5.213a1.665,1.665,0,0,1,1.457.439,4.926,4.926,0,0,1,.857,3.465C59.5,64.677,57.407,64.87,57.331,64.876Z" transform="translate(0.001 -36.758)"/></g></g></svg>