<svg xmlns="http://www.w3.org/2000/svg" width="52.06" height="53.204" viewBox="0 0 52.06 53.204"><defs><style>.a{fill:#fff;}</style></defs><g transform="translate(-5.159 0.001)"><path class="a" d="M5.691,17.713a1.075,1.075,0,0,0,.266.722,1.382,1.382,0,0,1,.266.544c.033.311.2.389.455.444a.725.725,0,0,1,.6.533c.078.289.233.366.522.255.566-.211,1.132-.444,1.7-.666-.011.067-.033.167-.044.266A8.718,8.718,0,0,0,9.354,21a.624.624,0,0,0,.644.666c.733,0,1.454-.011,2.187-.033a1.217,1.217,0,0,0,.91-.422c.033-.033.078-.089.111-.078.433.078.666-.222.932-.477a1.477,1.477,0,0,1,1.088-.477,5.472,5.472,0,0,0,.888-.122.779.779,0,0,1,.078.122.6.6,0,0,1,.033.744,1.366,1.366,0,0,0-.056.577,1.954,1.954,0,0,1-.022.444.829.829,0,0,0,.011.611,3.741,3.741,0,0,0,1.066,1.321.958.958,0,0,0,.821.211.606.606,0,0,1,.322.1c.133.078.233.233.366.266a.852.852,0,0,1,.455.289.679.679,0,0,0,.644.289c.2-.033.289.022.344.222.122.422.377.544.81.444a.667.667,0,0,1,.411.056c.278.122.533.289.8.411a.428.428,0,0,1,.289.366,5.756,5.756,0,0,1,.056.755c-.011.344.033.7-.266.977a.252.252,0,0,0-.067.178,1.093,1.093,0,0,0,.322.766,2.364,2.364,0,0,0,1.354.577c.222.022.455,0,.688.011.3.011.4.155.322.433a1.618,1.618,0,0,1-.078.211.729.729,0,0,0,.5,1.166c.122.044.3.178.3.266.022.466.222.966-.144,1.4a.321.321,0,0,0-.1.167.741.741,0,0,0-.022.377.233.233,0,0,1-.022.289,1.345,1.345,0,0,0-.3.733c-.033.588-.111,1.177-.155,1.765a7.709,7.709,0,0,0-.022.877.514.514,0,0,0,.389.511,5.212,5.212,0,0,0,1.01.111,1.427,1.427,0,0,1,1.41,1.687,3.22,3.22,0,0,0-.022.733c.011.311.111.377.422.322.144-.022.289-.067.433-.078a.484.484,0,0,1,.566.555A5.392,5.392,0,0,1,28.8,42.5c-.144.422-.178.411.189.666a1.03,1.03,0,0,1,.455,1.043c-.033.289-.111.566-.122.855a.836.836,0,0,1-.644.788,5.978,5.978,0,0,0-2.253,1.454c-.411.377-.766.8-1.143,1.21a.425.425,0,0,0-.056.633,1.525,1.525,0,0,0,.144.222c.266.344.611.633.5,1.154-.044.211.111.311.322.244a.722.722,0,0,0,.244-.122.294.294,0,0,1,.433.078,8.063,8.063,0,0,0,1.465,1.421,1.088,1.088,0,0,1,.477.71c.033.255.189.278.389.255a5.774,5.774,0,0,0,.566-.122c.122.255.311.289.488.067a.835.835,0,0,0,.189-.333,2.485,2.485,0,0,1,.733-1.265c.366-.344.688-.733,1.043-1.121.022.022.067.044.1.078a.47.47,0,0,0,.81-.067,5.6,5.6,0,0,0,.344-.622,2.31,2.31,0,0,1,.766-.9,2.493,2.493,0,0,0,1.01-1.954c.056-.4.078-.81.122-1.21.011-.155.044-.311.067-.455.078-.5.5-.888.433-1.443.111.056.189.111.278.155a.235.235,0,0,0,.355-.133,1.277,1.277,0,0,1,.9-.7,2.433,2.433,0,0,0,.8-.433,1.378,1.378,0,0,1,.977-.433,1.913,1.913,0,0,0,1.576-.588.884.884,0,0,1,1.221-.2,1.551,1.551,0,0,0,.977.144,4.213,4.213,0,0,0,1.787-.766,2.873,2.873,0,0,0,1.021-1.132,1.276,1.276,0,0,1,.71-.71.87.87,0,0,0,.3-.167c.433-.522.866-1.055,1.288-1.6.211-.278.111-.611.133-.921a.88.88,0,0,1,.3-.766,2.343,2.343,0,0,0,.844-1.2,2.819,2.819,0,0,0,.111-.611c-.011-.033.067-.056.078-.089a2.606,2.606,0,0,0,.1-.422c.078-.4.155-.788.222-1.188.078-.477.144-.955.211-1.432.067-.444.089-.888.178-1.332a.831.831,0,0,1,.555-.688,3.042,3.042,0,0,0,2.076-2.087,1.1,1.1,0,0,1,.955-.844,1.977,1.977,0,0,0,1.421-.81,2.774,2.774,0,0,1,.255-.433c.289-.311.6-.6.9-.9a2.458,2.458,0,0,0,.733-2.5,10.1,10.1,0,0,1-.189-1.01,7,7,0,0,0-.1-.844,1.466,1.466,0,0,0-1.188-1.166c-.189-.033-.366-.089-.555-.111a1.587,1.587,0,0,1-1.01-.555c-.444-.566-.877-1.154-1.288-1.743-.266-.377-.466-.788-1.01-.833-.067,0-.144-.1-.189-.178a1.213,1.213,0,0,0-.988-.633,1.84,1.84,0,0,0-.7.022,2.45,2.45,0,0,1-1.709-.189,1.556,1.556,0,0,1-.6-.389,1.135,1.135,0,0,0-.71-.344,2.846,2.846,0,0,0-1.454.244c-.233.089-.477.178-.744.266.122-.477.233-.91.355-1.343.056-.211.033-.322-.189-.411a7.963,7.963,0,0,1-.955-.522c-.155-.1-.278-.244-.444-.344a5.79,5.79,0,0,0-1.909-.688,2.473,2.473,0,0,0-2.087.455c-.311.244-.622.477-.921.7a1.631,1.631,0,0,0-.422-.588,1.311,1.311,0,0,0,.344-.089,3.082,3.082,0,0,0,.633-.322,9.682,9.682,0,0,0,.966-.821c.178-.178.133-.322-.1-.433a4.631,4.631,0,0,0-2.042-.433,1.646,1.646,0,0,0-.866.289c-.266.167-.5.366-.777.522a1.028,1.028,0,0,1-.788.167,3.6,3.6,0,0,1,.278-.588,5.639,5.639,0,0,1,1.865-1.643c.211-.111.389-.255.344-.533a.418.418,0,0,1,.2-.444c.122-.089.233-.189.389-.322a2.053,2.053,0,0,0-.344-.178,6.434,6.434,0,0,1-.655-.211.585.585,0,0,1-.3-.333c-.067-.255-.044-.533-.111-.8-.133-.611-.3-1.221-.444-1.776a.4.4,0,0,0-.611.1c-.155.167-.333.311-.477.488a.457.457,0,0,0-.1.333c.044.333.044.389-.266.466a.742.742,0,0,0-.533.488.492.492,0,0,1-.377.311,3.945,3.945,0,0,1-1.487.022,1.21,1.21,0,0,1-.944-.488.351.351,0,0,0-.233-.144c-.322-.056-.644-.089-.966-.144a.434.434,0,0,0-.5.233,1.184,1.184,0,0,1-1.4.555,1.717,1.717,0,0,0-1.2.033,8.319,8.319,0,0,1-1.154.278.84.84,0,0,1-.777-.2,2.614,2.614,0,0,1-.833-1.654,2.152,2.152,0,0,1,.422-1.443c.3-.455.289-.511-.122-.833a.523.523,0,0,1-.222-.577c.022-.1.089-.2.067-.278a.477.477,0,0,0-.167-.322c-.255-.133-.455-.056-.655.222-.278.366-.522.777-1.021.855-.355.056-.722.089-1.088.122-.089.011-.178-.022-.266-.011a.691.691,0,0,0-.555.411c-.233.389-.333.4-.666.089-.033-.022-.056-.067-.089-.078-.3-.155-.588-.311-.888-.433a.334.334,0,0,0-.3.122,1.077,1.077,0,0,0-.122.921,1.306,1.306,0,0,0,.744.944.453.453,0,0,1,0,.833c-.111.067-.244.1-.355.167-.755.433-1.51.866-2.264,1.31a.449.449,0,0,1-.455.033.758.758,0,0,0-.833.056.17.17,0,0,1-.178,0,1.438,1.438,0,0,1-.7-.955.86.86,0,0,0-.677-.777,1.441,1.441,0,0,0-.81.089,2.483,2.483,0,0,1-1.143.078,3.068,3.068,0,0,0-.844,0,.406.406,0,0,0-.044.788,1.122,1.122,0,0,1,.344.178.483.483,0,0,1,.167.311c0,.078-.122.189-.211.222a1.405,1.405,0,0,1-.433.056c-.522.022-.766.344-.555.821a3.729,3.729,0,0,0,.533.844,1.119,1.119,0,0,1,.078,1.476,1.115,1.115,0,0,0-.278.977.361.361,0,0,1-.056.255,2.322,2.322,0,0,0-.255,1.066.844.844,0,0,1-.067.278,3.023,3.023,0,0,0-.167.6c-.033.488-.244.666-.7.522a1.422,1.422,0,0,0-1.2.133,1.231,1.231,0,0,1-.455.089,4.756,4.756,0,0,1-.544-.056.451.451,0,0,1-.433.377.366.366,0,0,0-.144.078A3.137,3.137,0,0,0,6.1,15.1c-.056.211-.067.411-.322.533a1.181,1.181,0,0,0-.422.422.8.8,0,0,0,.044,1.1A.536.536,0,0,1,5.691,17.713Z"/></g></svg>