<svg xmlns="http://www.w3.org/2000/svg" width="66.143" height="51.838" viewBox="0 0 66.143 51.838"><defs><style>.a{fill:#fff;}</style></defs><g transform="translate(-244.176 -961.336)"><path class="a" d="M272.011,1003.281a10.243,10.243,0,0,1,3-1.515c.417-.148.842-.274,1.283-.416a1.8,1.8,0,0,0-1.344-.676,7.57,7.57,0,0,0-2.443.161c-.092.018-.178.056-.269-.015a1.023,1.023,0,0,1-.415-.61,1.841,1.841,0,0,1,.314-1.278,7.635,7.635,0,0,1,1.232-1.58,18.17,18.17,0,0,1,1.495-1.382,2.858,2.858,0,0,0-1.325-.37,4.266,4.266,0,0,0-2.914,1.1,1.313,1.313,0,0,1-.418.261.352.352,0,0,1-.5-.2,4.833,4.833,0,0,1-.522-1.972,6.253,6.253,0,0,1,.7-3.052,10.126,10.126,0,0,1,.7-1.167c-.228.067-.4.111-.572.171a4.668,4.668,0,0,0-2.224,1.362.647.647,0,0,1-.861.137,2.856,2.856,0,0,1-1.486-2,3.65,3.65,0,0,1,.4-2.218,7.146,7.146,0,0,1,.739-1.2.712.712,0,0,0-.35.056,5.639,5.639,0,0,1-1.493.207,1.506,1.506,0,0,1-1.621-1.946,8.312,8.312,0,0,1,3.84-5.759,11.586,11.586,0,0,1,2.76-1.326,3.857,3.857,0,0,0-.837-.066,9.186,9.186,0,0,0-2.938.657,26.244,26.244,0,0,0-5.705,3.117,1.1,1.1,0,0,1-.355.18.471.471,0,0,1-.635-.322,1.288,1.288,0,0,1-.074-.368c-.03-.59-.04-1.182-.077-1.771-.069-1.082-.152-2.162-.232-3.286-.143.225-.251.414-.377.59-.881,1.233-1.876,2.376-2.858,3.528a.639.639,0,0,1-.463.205,2.981,2.981,0,0,1-.754-.048c-.118-.022-.158-.066-.134-.189a8.356,8.356,0,0,0,.11-1.531c.017-1.238-.08-2.473-.148-3.708a1.987,1.987,0,0,0-.153-.783.317.317,0,0,0-.478-.182,3.514,3.514,0,0,0-.89.53,18.6,18.6,0,0,0-3.593,4.153c-.554.823-1.076.635-1.519-.041a.133.133,0,0,1-.01-.021,7.4,7.4,0,0,1-.624-1.9.979.979,0,0,0-.111-.332,3.22,3.22,0,0,1-.406-2.138,1.5,1.5,0,0,0-.055-.7.427.427,0,0,0-.675-.293,2.49,2.49,0,0,0-1.017.963c-.19.3-.35.61-.524.916v18.935a.739.739,0,0,0,.24.281,5.6,5.6,0,0,1,.72.64.169.169,0,0,1-.031.291,2.813,2.813,0,0,1-.541.282.853.853,0,0,0-.388.21v6.39c.06.08.07.186.14.262a.164.164,0,0,1-.024.26c-.046.041-.069.1-.116.141v1.468c.12.037.172-.057.228-.127.1-.128.209-.256.318-.381a.672.672,0,0,1,.928-.161,1.624,1.624,0,0,1,.333.262,8.817,8.817,0,0,1,1.062,1.358,9.7,9.7,0,0,1,1.289,2.409c.1.3.047.4-.278.422a5.679,5.679,0,0,1-.993-.006.438.438,0,0,0-.493.265,12.864,12.864,0,0,1-.748,1.205,9.4,9.4,0,0,1-1.344,1.613,1.09,1.09,0,0,0-.3.383c0,.482,0,.963,0,1.444,0,.1.019.123.121.122.434-.008.869,0,1.3,0a.625.625,0,0,0,.186-.3,9.028,9.028,0,0,1,.612-1.379,5.44,5.44,0,0,1,1.573-1.888.661.661,0,0,1,.922.056,2.455,2.455,0,0,1,.525.632,21.408,21.408,0,0,1,1.2,2.512c.054.138.085.291.238.363h2.557a.447.447,0,0,0,.143-.239,8.945,8.945,0,0,1,.58-1.6,5.327,5.327,0,0,1,1.56-2.051.605.605,0,0,1,.856.039,1.857,1.857,0,0,1,.4.49,14.137,14.137,0,0,1,1.349,3.066c.03.113.047.236.173.293H261.7a3.612,3.612,0,0,1,2.22-.706c.327-.013.381.086.251.382-.045.1-.144.2-.056.324h5.161a5.413,5.413,0,0,1-.883-.662,1.535,1.535,0,0,1-.365-1.7,3.5,3.5,0,0,1,.594-.987,9.23,9.23,0,0,1,1.7-1.534,20.151,20.151,0,0,1,2.486-1.534l-.228-.155a4.055,4.055,0,0,1-1.151-1.04,1.346,1.346,0,0,1,.015-1.688A2.9,2.9,0,0,1,272.011,1003.281Zm-6.243-8.811a.346.346,0,0,1,.354-.256.576.576,0,0,1,.363.153,8.735,8.735,0,0,1,1.439,1.621,1.177,1.177,0,0,1,.219.565c.006.127-.041.242-.172.233-.182-.013-.2.11-.247.222a6.145,6.145,0,0,0-.358,1.438c-.016.131-.019.268-.2.306a.354.354,0,0,1-.366-.156,1.936,1.936,0,0,1-.259-.5,9.1,9.1,0,0,1-.854-2.9A2.047,2.047,0,0,1,265.768,994.47Zm2.118-.559a.312.312,0,0,1-.089-.279,2.023,2.023,0,0,1,.368-1.079.926.926,0,0,0,.172-.331c.009-.046.025-.124.1-.115s.068.077.08.129a9.087,9.087,0,0,1,.145,1.231c0,.065,0,.1,0,.128.008.222-.018.451-.241.545S268.042,994.042,267.886,993.911Zm1.724,9.251a2.768,2.768,0,0,1,1.2-1.135c.206-.088.458-.209.638-.009s.009.418-.1.6a5.828,5.828,0,0,1-.944,1.173.534.534,0,0,1-.586.142c-.241-.094-.216-.34-.257-.554A.677.677,0,0,1,269.61,1003.162Zm.425-4.513a3.454,3.454,0,0,1,1.409-1.417c.222-.114.35-.03.341.272-.016.053-.038.161-.077.262a6.577,6.577,0,0,1-.839,1.469.512.512,0,0,1-.656.21A.665.665,0,0,1,270.035,998.649Zm-21.652.65a8.794,8.794,0,0,1-.648,2.769c-.284.643-.634.7-1.14.2a2.215,2.215,0,0,1-.419-.677,9.6,9.6,0,0,1-1.006-3.763,4.344,4.344,0,0,1,.234-1.48.58.58,0,0,1,.625-.433,1.151,1.151,0,0,1,.48.111,10.617,10.617,0,0,1,2.8,1.862c.074.071.136.154.21.224.161.156.162.237-.016.371a2.147,2.147,0,0,1-.764.361C248.483,998.911,248.408,999.041,248.383,999.3Zm-1.862-16.756c.13.1.15.2,0,.256-.342.118-.369.367-.369.675a2.5,2.5,0,0,1-.152.881c-.086.233-.211.27-.413.125a.4.4,0,0,1-.1-.094,3.66,3.66,0,0,1-.729-2.035,1.5,1.5,0,0,1,.046-.3c.031-.145.132-.207.3-.217a1.541,1.541,0,0,1,.162.041A4.6,4.6,0,0,1,246.521,982.543Zm-1.58,5.014a.534.534,0,0,1,.548-.367,1.4,1.4,0,0,1,.579.181,8.933,8.933,0,0,1,2.462,1.807c.148.169.15.236-.04.364a2.651,2.651,0,0,1-.756.324.236.236,0,0,0-.2.244,8.12,8.12,0,0,1-.662,2.617c-.223.464-.526.508-.908.159a2.378,2.378,0,0,1-.519-.887,8.491,8.491,0,0,1-.731-2.865A3.828,3.828,0,0,1,244.941,987.557Zm3.083-3.072a3,3,0,0,1,.085-.654.38.38,0,0,1,.411-.315.891.891,0,0,1,.3.045,6.743,6.743,0,0,1,2.082,1.182c.132.117.108.188-.005.278a1.648,1.648,0,0,1-.47.267.258.258,0,0,0-.194.293,5.668,5.668,0,0,1-.276,1.908c-.136.39-.347.455-.673.207a.823.823,0,0,1-.2-.2,6.3,6.3,0,0,1-1.061-2.894C248.021,984.564,248.024,984.524,248.024,984.485Zm1.325,7.923a4.431,4.431,0,0,1,.363-1.873.584.584,0,0,1,.808-.35,2.042,2.042,0,0,1,.562.295,9.594,9.594,0,0,1,2.285,2.03c.139.185.081.262-.065.35a2.547,2.547,0,0,1-.844.286.256.256,0,0,0-.233.239,8.486,8.486,0,0,1-.945,2.7c-.26.434-.553.465-.911.106a1.456,1.456,0,0,1-.34-.531A10.581,10.581,0,0,1,249.349,992.408Zm3.193-10.261a5.461,5.461,0,0,1,1.69.705c.085.051.089.1,0,.152a1,1,0,0,1-.121.073.957.957,0,0,0-.566.678c-.06.205-.182.248-.359.129a2.608,2.608,0,0,1-1.073-1.28C251.973,982.208,252.031,982.131,252.542,982.147Zm2.851,5.435a1.758,1.758,0,0,1-.533.3c-.166.06-.2.157-.2.317a6.675,6.675,0,0,1-.3,2.1c-.159.462-.414.535-.791.224a2.678,2.678,0,0,1-.6-.92,5.8,5.8,0,0,1-.745-2.536,2.693,2.693,0,0,1,.082-.795c.071-.251.223-.364.54-.363a1.843,1.843,0,0,1,.288.071,7.6,7.6,0,0,1,2.264,1.292C255.538,987.4,255.522,987.476,255.393,987.582Zm-1.916,6.84a4.056,4.056,0,0,1,.308-.5.625.625,0,0,1,.917-.228,3.362,3.362,0,0,1,.9.787,9.651,9.651,0,0,1,1.75,2.392c.092.192.01.262-.138.321a2.693,2.693,0,0,1-.976.141.322.322,0,0,0-.343.237,9.273,9.273,0,0,1-1.593,2.716c-.366.407-.706.372-1.014-.087a2.976,2.976,0,0,1-.344-1.335,10.708,10.708,0,0,1-.083-1.376A6.8,6.8,0,0,1,253.477,994.422Zm2.654-10.277a1.1,1.1,0,0,1,.461.085,7.671,7.671,0,0,1,1.494.846c.146.108.124.182-.03.231a1.186,1.186,0,0,0-.8.763c-.058.161-.212.168-.332.071a2.747,2.747,0,0,1-1.1-1.756C255.786,984.107,255.97,984.149,256.131,984.145Zm3.885,2.85a.593.593,0,0,1,.137.046,3.675,3.675,0,0,1,1.4,1.124.767.767,0,0,0,.093.105c.2.214.184.375-.1.438-.43.093-.59.4-.722.758-.1.282-.333.333-.5.087a3.97,3.97,0,0,1-.772-1.824.789.789,0,0,1,.193-.635A.312.312,0,0,1,260.016,986.995Zm.608-3.487c.124-.366.413-.638.56-1.036a2.212,2.212,0,0,1,.167.908,6.388,6.388,0,0,1,.021.706c0,.289-.16.506-.356.5a.613.613,0,0,1-.505-.551A1.7,1.7,0,0,1,260.624,983.508Zm-1.007,7.682a.909.909,0,0,0,.079.144c.172.211.167.269-.061.426a2.489,2.489,0,0,1-.767.355c-.217.056-.269.187-.3.38a10.977,10.977,0,0,1-.481,2.014.4.4,0,0,1-.727.132,1.655,1.655,0,0,1-.272-.492,8.555,8.555,0,0,1-.661-3.071,3.606,3.606,0,0,1,.334-1.649c.168-.343.433-.465.749-.259A5.78,5.78,0,0,1,259.617,991.19Zm-2.749,8.1a3.964,3.964,0,0,1,.6-.928.651.651,0,0,1,.867-.17,1.589,1.589,0,0,1,.469.355,12.613,12.613,0,0,1,1.938,2.7c.1.2.183.4.272.6.079.177-.036.249-.173.293a2.421,2.421,0,0,1-.982.086.423.423,0,0,0-.493.289,10.285,10.285,0,0,1-1.651,2.491,3.994,3.994,0,0,1-.287.281.549.549,0,0,1-.9-.113,1.833,1.833,0,0,1-.316-.974c-.022-.393-.042-.786-.058-1.084A9.054,9.054,0,0,1,256.868,999.295Zm3.841-.411a16.835,16.835,0,0,1-.74-4.388,4.138,4.138,0,0,1,.2-1.368.576.576,0,0,1,.844-.36,1.346,1.346,0,0,1,.463.36,22,22,0,0,1,1.728,2.157c.223.331.424.679.619,1.028.163.292.063.464-.272.5a1.984,1.984,0,0,1-.748-.08c-.184-.054-.247.011-.315.163a9.861,9.861,0,0,0-.691,2.371.4.4,0,0,1-.674.268A1.328,1.328,0,0,1,260.709,998.884Zm3.166-5.417c-.018.126-.014.26-.178.292a.3.3,0,0,1-.334-.173,5.642,5.642,0,0,1-.851-2.376,1.775,1.775,0,0,1,.125-.833c.109-.256.292-.311.5-.127a8.67,8.67,0,0,1,1.149,1.15,1.5,1.5,0,0,1,.271.6c.017.074.071.167-.013.216s-.14-.039-.2-.084c-.018-.014-.037-.027-.078-.056A4.775,4.775,0,0,0,263.875,993.467Zm.508-3.758a.621.621,0,0,1-.492-.591,2.127,2.127,0,0,1,.4-1.018,1,1,0,0,0,.187-.323c.014-.052.031-.12.094-.119s.067.081.078.129a5.963,5.963,0,0,1,.1.962c0,.157.005.314,0,.471C264.738,989.523,264.581,989.729,264.383,989.709Zm-14.507,16.231a.531.531,0,0,1-.907-.1,1.746,1.746,0,0,1-.283-.912c-.02-.378-.064-.754-.05-1.134a8.578,8.578,0,0,1,.609-3.392,4.055,4.055,0,0,1,.632-1.02.607.607,0,0,1,.822-.172,1.366,1.366,0,0,1,.418.3,11.793,11.793,0,0,1,1.893,2.614c.1.188.177.385.263.578.069.156-.039.215-.155.26a1.6,1.6,0,0,1-.793.08.6.6,0,0,0-.707.419A8.29,8.29,0,0,1,249.876,1005.94Zm2.695,4.551c-.092.075-.186.147-.283.213a.57.57,0,0,1-.953-.266,2.123,2.123,0,0,1-.147-1,10.4,10.4,0,0,1,1.091-4.329,4.211,4.211,0,0,1,.992-1.252.626.626,0,0,1,.784-.071,1.237,1.237,0,0,1,.405.359,11.4,11.4,0,0,1,1.72,3.34c.023.075.032.155.055.23.088.279.037.362-.259.39a3.176,3.176,0,0,1-.986-.085.31.31,0,0,0-.383.154A10.616,10.616,0,0,1,252.571,1010.491Zm7.1.01c-.6.389-.981.234-1.156-.461a2.333,2.333,0,0,1-.061-.5,10.968,10.968,0,0,1,1.572-4.887,4.282,4.282,0,0,1,1.03-1.1.657.657,0,0,1,.83-.015,1.388,1.388,0,0,1,.42.443,12.218,12.218,0,0,1,1.494,3.473c.034.145.047.293.089.438.057.2-.115.234-.255.251a1.4,1.4,0,0,1-.723-.072c-.479-.2-.748-.018-1.045.364A8.9,8.9,0,0,1,259.676,1010.5Zm6.609-7.665a10.636,10.636,0,0,0-.746,2.6.453.453,0,0,1-.73.319,1.143,1.143,0,0,1-.412-.536,10.108,10.108,0,0,1-.5-1.767,17,17,0,0,1-.444-3.241,4.979,4.979,0,0,1,.262-1.817.624.624,0,0,1,.8-.39,1.1,1.1,0,0,1,.5.3c.55.575,1.2,1.042,1.743,1.627a8.652,8.652,0,0,1,.872,1.055c.206.308.287.674.475.993.128.219.021.4-.234.5a2.461,2.461,0,0,1-1.076.066C266.345,1002.5,266.457,1002.451,266.285,1002.836Zm.98,6.261a.54.54,0,0,1-.577.092c-.195-.088-.211-.276-.21-.5a.673.673,0,0,1,.173-.468,2.127,2.127,0,0,1,1.362-.9.771.771,0,0,1,.258,0c.258.051.337.182.225.421a1.934,1.934,0,0,1-.239.377A5.948,5.948,0,0,1,267.265,1009.1Z"/><path class="a" d="M310.319,994.472v.568a2,2,0,0,1-.669,1.208q-1.464,1.5-2.911,3.009c-1.607,1.671-3.254,3.3-4.908,4.928-1.3,1.281-2.64,2.531-4.022,3.731a3.983,3.983,0,0,0-.722.932,6.1,6.1,0,0,0-.959,2.621,4.365,4.365,0,0,0,.093,1.409c.021.1.073.2-.01.292h-2.557c-.112-.133-.043-.27,0-.4.616-2.1,1.162-4.21,1.677-6.332a5.37,5.37,0,0,0,.173-1.048.345.345,0,0,1,.2-.326,23.73,23.73,0,0,0,3.422-2.189c1.208-.847,2.369-1.756,3.566-2.618a2.344,2.344,0,0,0,.867-1.128c.1-.29.036-.363-.265-.308a5.265,5.265,0,0,0-1.349.5c-1.646.8-3.322,1.534-4.993,2.279-.469.209-.765.067-.928-.424a1.037,1.037,0,0,1-.066-.3c-.006-.624-.17-1.233-.168-1.857a22.169,22.169,0,0,1,.355-3.571,83.691,83.691,0,0,1,2.041-8.818,2.026,2.026,0,0,0-.052-.977c-.032-.156-.129-.1-.2-.011a3.492,3.492,0,0,0-.37.686c-.5,1.145-.867,2.335-1.251,3.52-.157.481-.4.923-.574,1.4-.458,1.278-.828,2.582-1.187,3.89-.873,3.186-1.643,6.4-2.383,9.616-.164.714-.365,1.422-.466,2.148-.089.638-.125,1.284-.224,1.923a23.871,23.871,0,0,1-1.006,4.106.476.476,0,0,1-.177.243h-8.049a2.922,2.922,0,0,0-.3-.958,21.838,21.838,0,0,1-1.993-6.126,10.023,10.023,0,0,1,.076-3.99.054.054,0,0,1,.043-.006h0c.018.008.027.032.037.053a3.772,3.772,0,0,0,2.538,3.342,7.9,7.9,0,0,0,3.2.472,1.814,1.814,0,0,0,1.7-1.68,7.526,7.526,0,0,0-.171-2.835,17.83,17.83,0,0,0-1.464-3.922,35.183,35.183,0,0,1-2.364-6.764,12.189,12.189,0,0,1-.36-3.866,4.656,4.656,0,0,1,.395-1.553,10.484,10.484,0,0,0,1.3,1.716,17.387,17.387,0,0,0,4.889,3.633c.385.2.776.383,1.17.562a1.17,1.17,0,0,0,1.42-.268,2.613,2.613,0,0,0,.669-1.384c.142-.71.2-1.433.4-2.135a21.881,21.881,0,0,1,2.893-6.2,38.733,38.733,0,0,1,7.714-8.434,59.272,59.272,0,0,1,5.693-4.185l.188-.115a9.877,9.877,0,0,1-.357,1.245,10.639,10.639,0,0,1-1.766,3.4c-.558.672-1.182,1.29-1.739,1.966a31.828,31.828,0,0,0-4.948,7.9,15.748,15.748,0,0,0-1.284,5.2,9.68,9.68,0,0,0,.439,3.639c.147.446.18.909.3,1.358a5.188,5.188,0,0,0,1.367,2.521,4.082,4.082,0,0,0,3.308,1.094,8.032,8.032,0,0,0,4.865-2.334C310.165,994.461,310.216,994.33,310.319,994.472Z"/><path class="a" d="M251.754,961.336c-.047.817-.08,1.635-.144,2.451a34.06,34.06,0,0,1-1.325,7.662A9.467,9.467,0,0,1,249,974.168c-.069.1-.145.187-.219.279a.558.558,0,0,1-.07.057,7.4,7.4,0,0,1-.452-1.436,12.1,12.1,0,0,1,.835-8.061,13.38,13.38,0,0,1,2.568-3.6c.014-.015.038-.025.044-.046h0a.047.047,0,0,0,0-.026Z"/><path class="a" d="M246.435,964.917a64.705,64.705,0,0,1-1.423,6.529c-.107-.041-.092-.145-.114-.219a19.4,19.4,0,0,1-.668-3.952c0-.07.042-.16-.051-.211v-.143c.05-.089.012-.186.024-.278v0l0-.023a.385.385,0,0,0-.021-.215V963.75a.568.568,0,0,0,.022-.262l0-.021h0c-.012-.094.026-.193-.024-.284v-.142c.06-.436.049-.876.069-1.314a.421.421,0,0,1,.168-.39h.378a.757.757,0,0,1,.348.219.574.574,0,0,0,.8-.005.684.684,0,0,1,.321-.214h.047c.313.032.318.268.338.5A12.666,12.666,0,0,1,246.435,964.917Z"/><path class="a" d="M263.236,963.892a13.64,13.64,0,0,1-.259,1.6,19.206,19.206,0,0,1-2.37,6.18,11.189,11.189,0,0,1-3.5,3.66c-.063.04-.129.13-.2.088s-.032-.144-.032-.218a13.319,13.319,0,0,1,1.24-5.651,12.782,12.782,0,0,1,4.954-5.57C263.113,963.958,263.161,963.934,263.236,963.892Z"/><path class="a" d="M273.635,969.046a9.128,9.128,0,0,1-2.7,4.209,14.066,14.066,0,0,1-6.035,3.035,13.72,13.72,0,0,1-1.9.359c.26-.277.528-.6.828-.881a46.575,46.575,0,0,1,5.5-4.575,15.7,15.7,0,0,1,3.589-1.972A2.52,2.52,0,0,1,273.635,969.046Z"/><path class="a" d="M258.558,964.314a1.61,1.61,0,0,1-.33.843c-1.509,1.93-3.015,3.864-4.351,5.923-.153.236-.291.482-.436.723a18.745,18.745,0,0,1,.208-2.208,27.99,27.99,0,0,1,.955-4.547,8.041,8.041,0,0,1,.708-1.669,2.664,2.664,0,0,1,.606-.75c.126-.1.246-.225.438-.109a.534.534,0,0,1,.3.5c0,.134-.03.268-.026.4a.7.7,0,0,0,1.038.63,1.724,1.724,0,0,1,.447-.147C258.413,963.853,258.592,964.012,258.558,964.314Z"/><path class="a" d="M267.568,967.306a11.971,11.971,0,0,1-4.448,6.123,6.441,6.441,0,0,1-.954.564c-.068.032-.128.1-.231.058a14.886,14.886,0,0,0,.941-1.358,15.747,15.747,0,0,0,2.167-6.434c.022-.191.083-.347.267-.4s.3.089.4.225a.971.971,0,0,0,1.323.412.27.27,0,0,1,.326.053A.772.772,0,0,1,267.568,967.306Z"/></g></svg>