<svg xmlns="http://www.w3.org/2000/svg" width="35.15" height="29.256" viewBox="0 0 35.15 29.256"><defs><style>.a{fill:#fff;fill-rule:evenodd;}</style></defs><path class="a" d="M862.388,1169.7c-2.751,4.018-3.064,8.431-.908,11.563a11.437,11.437,0,0,0,3.705,2.787c.474-.586.506-1.341,1.049-1.883.33-.331.5-.929.815-1.24a1.525,1.525,0,0,0,.393-.354h0c.127-.255.577-.459.577-.74v.063a2.574,2.574,0,0,0,.546-.851v0c.116-.116.3-.248.3-.427v.01c.378-.756,1.075-1.422,1.464-2.2a8.1,8.1,0,0,0,1.023-1.572h0v.063a.329.329,0,0,0,.122-.245v.063a.331.331,0,0,0,.121-.245v.063a.7.7,0,0,0,.243-.427v.01c.061-.122.182-.214.182-.373v.009c.947-1.894-2.554-3.7-4.05-3.7a4.5,4.5,0,0,0-1.344-.3c-1.37,0-2.808-.069-4.241-.069Zm10.686-4.058a1.492,1.492,0,0,0-1.194,1.7,1.759,1.759,0,0,0,.685,1.339,22.7,22.7,0,0,1-3.449.167.3.3,0,0,1-.211-.087h0l.027.027a5.807,5.807,0,0,1-.993-.122c-1.545,0-3.093.061-4.646.061-.03,0-.094-.007-.172-.017a18.352,18.352,0,0,1,1.25-1.4c5.623-5.688,14.659-7.612,20.116-4.284a8.056,8.056,0,0,1,3.892,5.692c-.369.008-.737.014-1.107.012-.353.17-1.546.356-1.808.095h0l.027.026h-.3a1.416,1.416,0,0,1-.427-.182h-6.584c-.3.05-2.911.331-3.329-.087h0a3.92,3.92,0,0,0-.851-.037,1.78,1.78,0,0,0,.462-1.353,1.492,1.492,0,0,0-1.387-1.548Zm11.3,13.555c3-3.129,4.369-6.736,4.076-9.893-.672-.015-1.351-.02-2.05-.02a7.424,7.424,0,0,0-2.679.425,1.475,1.475,0,0,0-.548.031c-.359.18-.984-.114-1.393.09-1.308,0-3.652-.222-4.723.849h.05c-.231.01-.467.509-.467.723a4.33,4.33,0,0,0,.606.791v-.056a.334.334,0,0,0,.121.238v-.051c.019.427,1.949,1.845,2.423,2.292.367.667,1.292,1.071,1.612,1.711a.392.392,0,0,0,.212.172l1.212,1.213v-.05a13.472,13.472,0,0,0,1.548,1.535Zm-1.247,1.6c.1.517.175,1.038.244,1.46a20.16,20.16,0,0,1-3.984,2.058,19.69,19.69,0,0,1-6.136,1.243c-.961-.014-1.921-.052-2.881-.132h0a.3.3,0,0,1-.215-.119,14.73,14.73,0,0,1-1.527-.106q-.672-.139-1.324-.334a2.7,2.7,0,0,1,.3-.366v.031h0c.02-.183.175-.209.24-.34v0a1.833,1.833,0,0,1,.182-.488v0c0-.132.077-.156.122-.245v0a2.918,2.918,0,0,1,.242-.67v0c.01-.4.909-1.465,1.153-1.8,0-.151.086-.22.182-.316v.056a.3.3,0,0,1,.087-.2c.109-.109,1.065-1.869,1.065-1.73a14.25,14.25,0,0,1,2.184-2.489v.055c0-.154.166-.282.269-.385.392-.392.563-.988.944-1.369v.063c0-.259.784-.783,1.084-.783l-.021.021c.449-.427,1.839.609,2.278.828h0c.425.01.922.876,1.114.876h0c.514.514,1.1.977,1.611,1.49h-.056a9.569,9.569,0,0,1,1.792,1.531,2.669,2.669,0,0,1,.979,1.809l-.037.031a3.052,3.052,0,0,1,.112.317Zm6.065-11.472c.506.017,1.011.042,1.519.075a14.2,14.2,0,0,1-4.721,10.75,1.182,1.182,0,0,1-.682-.213c3.047-3.405,4.348-7.27,3.884-10.612Zm-26.848-.776q.417-.481.878-.95c6.076-6.146,15.839-8.226,21.735-4.629a8.709,8.709,0,0,1,4.126,5.728c.52-.014,1.04-.028,1.563-.03a10.541,10.541,0,0,0-.593-2.42c-2.53-6.726-11.448-9.583-19.852-6.359a18.386,18.386,0,0,0-9.935,8.643,13.118,13.118,0,0,1,2.078.017Zm6.7-8.97c9.081-3.484,18.716-.4,21.45,6.87a11.352,11.352,0,0,1,.573,2.141.679.679,0,0,0,.1-.039h1.122c.221.118.377.435.551.609v-.056c.007.3.116.256-.265.457-.474-.052-.939-.094-1.4-.129.6,6.538-4.339,13.52-12.2,16.537a19.828,19.828,0,0,1-13.4.494,11.386,11.386,0,0,1-2.669-1.176c-5.239-3.2-5.707-9.826-1.483-15.576-.576.016-1.149.047-1.713.1-.038.1-.076.2-.112.3a7.465,7.465,0,0,0-1.885.158A19.438,19.438,0,0,1,869.043,1159.578Z" transform="translate(-857.707 -1158.144)"/></svg>