<svg xmlns="http://www.w3.org/2000/svg" width="33.819" height="59.39" viewBox="0 0 33.819 59.39"><defs><style>.a{fill:#fff;}</style></defs><g transform="translate(-528.656 -800.153)"><g transform="translate(534.2 855.831)"><path class="a" d="M536.641,865.929l19.534-.125a1.794,1.794,0,1,0-.023-3.588l-19.533.125a1.794,1.794,0,0,0,.022,3.588Z" transform="translate(-534.836 -862.217)"/></g><g transform="translate(543.874 841.197)"><path class="a" d="M547.517,864.188a1.793,1.793,0,0,0,1.783-1.8l-.093-14.7a1.794,1.794,0,1,0-3.587.023l.093,14.7A1.793,1.793,0,0,0,547.517,864.188Z" transform="translate(-545.619 -845.905)"/></g><g transform="translate(528.656 825.016)"><path class="a" d="M545.575,846.568l.195,0a16.81,16.81,0,0,0,16.705-16.916,1.794,1.794,0,1,0-3.588.023,13.221,13.221,0,0,1-13.14,13.3l-.2,0a13.224,13.224,0,0,1-13.308-13.138,1.794,1.794,0,1,0-3.588.023,16.811,16.811,0,0,0,16.919,16.7Z" transform="translate(-528.656 -827.868)"/></g><path class="a" d="M541.824,826.354l-.014-2.291-5.223.033-.014-2.306,5.223-.033-.014-2.29-5.223.033-.014-2.306,5.222-.033-.014-2.29-5.223.033-.014-2.306,5.223-.033-.015-2.29-5.222.033,0-.423a9.668,9.668,0,0,1,9.607-9.729h.2a9.667,9.667,0,0,1,9.73,9.605l0,.424-5.222.033.014,2.29,5.223-.033.014,2.306-5.223.033.015,2.291,5.222-.033.014,2.306-5.222.033.014,2.291,5.223-.033.014,2.306-5.223.033.015,2.291,5.222-.033,0,.581a9.669,9.669,0,0,1-9.607,9.729h-.2a9.668,9.668,0,0,1-9.73-9.606l0-.581Z" transform="translate(-0.807 0)"/></g></svg>