<svg xmlns="http://www.w3.org/2000/svg" width="50.342" height="61.725" viewBox="0 0 50.342 61.725"><defs><style>.a{fill:#fff;}</style></defs><g transform="translate(-928.806 -802.356)"><path class="a" d="M975.9,812.47l.308-2.54-3.259-.4.308-2.539-38.229-4.639-6.225,51.215,3.259.4-.308,2.539,3.245.4-.309,2.539,38.23,4.639,6.225-51.215Zm-45.438,39.794,5.873-48.249L971.6,808.3l-.132,1.057-.176,1.482-5.549,45.71Zm2.951,2.936.132-1.057,33.488,4.066,5.74-47.192,1.776.22-.132,1.057-.176,1.482-5.564,45.71Zm38.2,7.222-35.264-4.286.132-1.057,33.5,4.066,5.74-47.193,1.762.221Z"/><path class="a" d="M949.645,810.726l-1.353,11.121-11.138-1.353,1.353-11.136Z"/><rect class="a" width="11.234" height="11.22" transform="translate(935.489 834.244) rotate(-83.081)"/><path class="a" d="M945.44,843.267l-.731,6.066-11.138-1.353,1.354-11.152,7.715.949-.093.077c-.591.576-1.182,1.182-1.82,1.867a2.99,2.99,0,0,0-3.376-1.042c-.093.031-.171.062-.249.093a2.928,2.928,0,0,0-1.493,3.686c.062.171.124.342.187.5.046.124.109.233.14.342a.635.635,0,0,0,.062.156l.855,2.115c.109.28.218.544.327.824a2.652,2.652,0,0,0,.716,1.042,2.84,2.84,0,0,0,1.68.763,1.745,1.745,0,0,0,.28.015,3.231,3.231,0,0,0,1.2-.233,1.717,1.717,0,0,0,.295-.156,2.875,2.875,0,0,0,.871-.762,11.3,11.3,0,0,1,.731-.9c.094-.109.171-.218.249-.327.016-.015.016-.031.031-.046.016-.032.047-.063.063-.094l.046-.046.016-.016a3.025,3.025,0,0,0,.2-.233,1.035,1.035,0,0,0,.156-.2l.14-.171c.015-.016.031-.016.031-.032l.046-.046a.711.711,0,0,1,.078-.094c.062-.062.125-.139.187-.2a1.711,1.711,0,0,1,.14-.171l.124-.124a.629.629,0,0,0,.156-.2.228.228,0,0,0,.047-.062.121.121,0,0,0,.062-.062C944.958,843.78,945.191,843.531,945.44,843.267Z"/><path class="a" d="M967.094,817.417l-.25,2.114-16.516-2.011.25-2.1Z"/><path class="a" d="M965.435,831.156l-.264,2.1-16.516-2.011.264-2.1Z"/><path class="a" d="M963.762,844.881l-.25,2.114L947,844.983l.25-2.1Z"/><path class="a" d="M948.665,836.934a.829.829,0,0,1-.28.684c-.187.125-.358.28-.529.42a3.5,3.5,0,0,1-.3.249c-.125.109-.218.187-.312.265-.373.311-.715.622-1.057.948l-.047.032a2.087,2.087,0,0,1-.28.249,1.217,1.217,0,0,1-.14.139c-.156.14-.28.28-.436.405-.264.248-.544.529-.808.809-.514.5-1,1.026-1.478,1.555a.371.371,0,0,0-.094.14l-.109.109a.472.472,0,0,0-.124.124.846.846,0,0,0-.093.125.407.407,0,0,0-.109.124c-.078.078-.14.156-.218.233a.662.662,0,0,1-.093.109c0,.016-.016.016-.016.031-.062.078-.14.156-.2.249a1.418,1.418,0,0,0-.125.156.51.51,0,0,0-.093.093.973.973,0,0,1-.124.125,1.316,1.316,0,0,1-.125.186c-.046.047-.078.093-.124.14a.092.092,0,0,0-.016.062c-.295.327-.575.685-.855,1.058a.942.942,0,0,1-.234.2.994.994,0,0,1-.466.078.729.729,0,0,1-.436-.218.493.493,0,0,1-.14-.233c-.124-.28-.233-.56-.342-.84l-.856-2.1c-.093-.3-.233-.591-.342-.9a.786.786,0,0,1,.373-.995.921.921,0,0,1,.405-.047.7.7,0,0,1,.591.436h.015c.078.233.187.466.265.7.264.638.529,1.307.778,1.945l.513-.622c.093-.125.2-.234.28-.327.093-.124.187-.218.265-.311.933-1.073,1.9-2.115,2.908-3.1l.078-.078.7-.653c.016-.016.016-.032.031-.047.094-.078.171-.155.28-.249.094-.078.187-.171.28-.249l.047-.046.031-.031c.218-.187.436-.358.638-.561.078-.061.156-.14.249-.2.093-.093.187-.171.28-.248a.742.742,0,0,1,.155-.125,1.03,1.03,0,0,1,.14-.124c.156-.14.327-.265.483-.389a.812.812,0,0,1,.56-.156c.077.016.124.031.186.047a.77.77,0,0,1,.311.233A.653.653,0,0,1,948.665,836.934Z"/></g></svg>