<svg xmlns="http://www.w3.org/2000/svg" width="51.67" height="55.643" viewBox="0 0 51.67 55.643"><defs><style>.a{fill:#fff;stroke:#fff;stroke-linecap:round;stroke-linejoin:round;}</style></defs><g transform="translate(-204.285 -286.878)"><g transform="translate(204.814 287.378)"><path class="a" d="M234.749,353.162a25.348,25.348,0,1,1-8.36-49.994c14.886-2.208,25.248,8.512,27.3,16.127a23.9,23.9,0,0,0-45.3,13.818C209.979,343.656,220.269,354.713,234.749,353.162Z" transform="translate(-204.814 -299.007)"/><path class="a" d="M293.256,349.168c4.61,8.71,12.138,12.519,21.827,13.681a18.464,18.464,0,0,1-2.5.5c-2.4.121-4.812.154-7.217.249a3.025,3.025,0,0,0-1.075.281c-1.252.556-1.507,1.556-.57,2.562a9.951,9.951,0,0,1,2.647,6.6c-.675-.642-1.261-1.277-1.924-1.815a32.3,32.3,0,0,0-4.043-3.085c-3.244-1.866-6.369-1.234-8.826,1.6-2.48,2.86-3.726,6.335-4.853,9.864-.125.391-.231.789-.41,1.408a13.562,13.562,0,0,1-.493-6.749c.78-5.408,3.439-9.42,8.731-11.45a2.853,2.853,0,0,0,1.929-3.7c-.429-1.72-1.129-3.371-1.683-5.061C294.265,352.43,293.768,350.8,293.256,349.168Z" transform="translate(-265.454 -333.751)"/><path class="a" d="M355.388,366.335l.951-.136c-1.647,1.4-.982,4.124-3.257,5.235-1.211-.73-3.022-.929-3.43-2.963-.092-.459-.63-.829-1.013-1.3l1.593-.959-1.031-.353.184-.3,1.79-.347-.347-.61a12.088,12.088,0,0,1,2.677.231,8.746,8.746,0,0,1,2.021,1.282Z" transform="translate(-312.753 -345.334)"/><path class="a" d="M361.292,308.215c-2-8.674-6.761-14.761-14.7-18.267-.826-.365-.838-.46-.618-2.57C352.911,289.032,361.581,300.652,361.292,308.215Z" transform="translate(-310.66 -287.378)"/><path class="a" d="M313.992,331.414c-6.3-4.235-13.013-5.256-20.25-2.719l-1.207-1.411C298.268,324.7,307.839,325.882,313.992,331.414Z" transform="translate(-270.648 -316.346)"/></g></g></svg>