<svg xmlns="http://www.w3.org/2000/svg" width="66.144" height="49.309" viewBox="0 0 66.144 49.309"><defs><style>.a{fill:#fff;}</style></defs><g transform="translate(-785.421 -808.563)"><path class="a" d="M793.008,822.318a1.369,1.369,0,0,0-.806.5l1.367-.619C793.368,822.246,793.2,822.289,793.008,822.318Zm2-.993a.7.7,0,0,0-.619.518l1.425-.619C795.542,821.253,795.268,821.281,795.009,821.325Z"/><path class="a" d="M851.069,814.7a7.075,7.075,0,0,0-3.757-3.9l-5.01-2.188a.858.858,0,0,0-1.051.4.793.793,0,0,0,.4,1.037l5.024,2.188a5.453,5.453,0,0,1,2.822,7.226,5.69,5.69,0,0,1-7.285,2.821l-18.5-8.061a7.084,7.084,0,0,0-9.372,3.6l-1.008,2.289a6.915,6.915,0,0,0-.288,4.836h-7.27A13.51,13.51,0,0,0,803.6,823.7a1.259,1.259,0,0,0-1.051-1.382,11.02,11.02,0,0,0-1.411-.2c0-.028.029-.043.029-.057.086-.317-.173-.662-.619-.734a15.8,15.8,0,0,0-4.737-.1l-1.425.619a.558.558,0,0,0,0,.216c.014.014.014.029.014.057-.288.015-.575.058-.835.087l-1.367.619h-.015a1.1,1.1,0,0,0-.216.979c.015.071.044.158.058.23a.211.211,0,0,0,.058.115A12.836,12.836,0,0,0,787.84,842.9a15.324,15.324,0,0,0-.547,1.958c-.893,4.318-.1,10.911,3.354,12.58,4.319,2.1,12.323-3.8,14.065-10.277a13.26,13.26,0,0,0,.332-1.771c1.338-.806,3.325-1.54,4.074-2.706H820.03c.778,1.209,2.908,1.972,4.262,2.807.043.187.086.417.144.662,1.439,6.017,7.687,12.595,12.28,11.285,4.1-1.166,6.176-8.435,5.14-13.588a11.8,11.8,0,0,0-.346-1.267,12.6,12.6,0,0,0,2.217-7.2,12.76,12.76,0,0,0-7.141-11.472.306.306,0,0,0,.015-.115,1.252,1.252,0,0,0-1.037-1.483c-.446-.072-.878-.144-1.324-.2,0-.028.014-.043.014-.057.1-.317-.173-.662-.6-.734a17.1,17.1,0,0,0-5.558,0c-.432.072-.7.417-.6.734,0,.014.014.014.014.029-.5.057-.979.143-1.454.23a1.252,1.252,0,0,0-1.065,1.483.606.606,0,0,1,.043.158,10.741,10.741,0,0,0-1.656.993h-8.681v-.014a5.415,5.415,0,0,1,.087-4.189l1.022-2.3a5.722,5.722,0,0,1,7.284-2.822l14.858,6.492,1.439.6.821.374,1.382.605h.014a7.14,7.14,0,0,0,9.358-3.6A6.89,6.89,0,0,0,851.069,814.7Zm-52.806,29.883a9.378,9.378,0,1,1,9.386-9.371A9.378,9.378,0,0,1,798.263,844.586ZM830.9,825.83a9.378,9.378,0,1,1-9.372,9.385A9.387,9.387,0,0,1,830.9,825.83Zm-12.828,8.608v2.908a2.5,2.5,0,0,1-2.159,2.706h-2.678a2.5,2.5,0,0,1-2.159-2.706v-2.908a2.481,2.481,0,0,1,2.159-2.692h2.678A2.481,2.481,0,0,1,818.072,834.438Z"/><path class="a" d="M798.27,827.262a7.965,7.965,0,1,0,7.966,7.965A7.97,7.97,0,0,0,798.27,827.262Zm4.2,9.443h-2.706v2.706c0,.825-.653,1.228-1.478,1.228h-.019c-.826,0-1.5-.4-1.5-1.228v-2.706h-2.706c-.826,0-1.229-.672-1.229-1.5,0-.845.4-1.5,1.229-1.5h2.706V831c0-.825.672-1.228,1.5-1.228h.019c.825,0,1.478.4,1.478,1.228v2.707h2.706c.826,0,1.229.652,1.229,1.5C803.7,836.033,803.3,836.705,802.473,836.705Zm13.111.364h-2.016a.826.826,0,0,0,0,1.651h2.016a.826.826,0,0,0,0-1.651Zm0-3.915h-2.016a.819.819,0,0,0-.825.825.836.836,0,0,0,.825.845h2.016a.835.835,0,0,0,.825-.845A.819.819,0,0,0,815.584,833.154Zm0,0h-2.016a.819.819,0,0,0-.825.825.836.836,0,0,0,.825.845h2.016a.835.835,0,0,0,.825-.845A.819.819,0,0,0,815.584,833.154Zm0,3.915h-2.016a.826.826,0,0,0,0,1.651h2.016a.826.826,0,0,0,0-1.651Zm-17.314-9.807a7.965,7.965,0,1,0,7.966,7.965A7.97,7.97,0,0,0,798.27,827.262Zm4.2,9.443h-2.706v2.706c0,.825-.653,1.228-1.478,1.228h-.019c-.826,0-1.5-.4-1.5-1.228v-2.706h-2.706c-.826,0-1.229-.672-1.229-1.5,0-.845.4-1.5,1.229-1.5h2.706V831c0-.825.672-1.228,1.5-1.228h.019c.825,0,1.478.4,1.478,1.228v2.707h2.706c.826,0,1.229.652,1.229,1.5C803.7,836.033,803.3,836.705,802.473,836.705Zm-4.2-9.443a7.965,7.965,0,1,0,7.966,7.965A7.97,7.97,0,0,0,798.27,827.262Zm4.2,9.443h-2.706v2.706c0,.825-.653,1.228-1.478,1.228h-.019c-.826,0-1.5-.4-1.5-1.228v-2.706h-2.706c-.826,0-1.229-.672-1.229-1.5,0-.845.4-1.5,1.229-1.5h2.706V831c0-.825.672-1.228,1.5-1.228h.019c.825,0,1.478.4,1.478,1.228v2.707h2.706c.826,0,1.229.652,1.229,1.5C803.7,836.033,803.3,836.705,802.473,836.705Zm13.111.364h-2.016a.826.826,0,0,0,0,1.651h2.016a.826.826,0,0,0,0-1.651Zm0-3.915h-2.016a.819.819,0,0,0-.825.825.836.836,0,0,0,.825.845h2.016a.835.835,0,0,0,.825-.845A.819.819,0,0,0,815.584,833.154Zm15.318-5.892a7.965,7.965,0,1,0,7.966,7.965A7.97,7.97,0,0,0,830.9,827.262Zm-4.223,9.98a2.063,2.063,0,1,1,2.054-2.054A2.056,2.056,0,0,1,826.679,837.242Zm4.127,3.839a2.054,2.054,0,1,1,2.054-2.054A2.073,2.073,0,0,1,830.806,841.081Zm0-7.62a2.063,2.063,0,1,1,2.054-2.073A2.076,2.076,0,0,1,830.806,833.461Zm4.28,3.781a2.063,2.063,0,1,1,2.054-2.054A2.061,2.061,0,0,1,835.086,837.242Zm-4.184-9.98a7.965,7.965,0,1,0,7.966,7.965A7.97,7.97,0,0,0,830.9,827.262Zm-4.223,9.98a2.063,2.063,0,1,1,2.054-2.054A2.056,2.056,0,0,1,826.679,837.242Zm4.127,3.839a2.054,2.054,0,1,1,2.054-2.054A2.073,2.073,0,0,1,830.806,841.081Zm0-7.62a2.063,2.063,0,1,1,2.054-2.073A2.076,2.076,0,0,1,830.806,833.461Zm4.28,3.781a2.063,2.063,0,1,1,2.054-2.054A2.061,2.061,0,0,1,835.086,837.242Zm-19.5-4.088h-2.016a.819.819,0,0,0-.825.825.836.836,0,0,0,.825.845h2.016a.835.835,0,0,0,.825-.845A.819.819,0,0,0,815.584,833.154Zm0,3.915h-2.016a.826.826,0,0,0,0,1.651h2.016a.826.826,0,0,0,0-1.651Zm-17.314-9.807a7.965,7.965,0,1,0,7.966,7.965A7.97,7.97,0,0,0,798.27,827.262Zm4.2,9.443h-2.706v2.706c0,.825-.653,1.228-1.478,1.228h-.019c-.826,0-1.5-.4-1.5-1.228v-2.706h-2.706c-.826,0-1.229-.672-1.229-1.5,0-.845.4-1.5,1.229-1.5h2.706V831c0-.825.672-1.228,1.5-1.228h.019c.825,0,1.478.4,1.478,1.228v2.707h2.706c.826,0,1.229.652,1.229,1.5C803.7,836.033,803.3,836.705,802.473,836.705Zm-4.2-9.443a7.965,7.965,0,1,0,7.966,7.965A7.97,7.97,0,0,0,798.27,827.262Zm4.2,9.443h-2.706v2.706c0,.825-.653,1.228-1.478,1.228h-.019c-.826,0-1.5-.4-1.5-1.228v-2.706h-2.706c-.826,0-1.229-.672-1.229-1.5,0-.845.4-1.5,1.229-1.5h2.706V831c0-.825.672-1.228,1.5-1.228h.019c.825,0,1.478.4,1.478,1.228v2.707h2.706c.826,0,1.229.652,1.229,1.5C803.7,836.033,803.3,836.705,802.473,836.705Zm13.111.364h-2.016a.826.826,0,0,0,0,1.651h2.016a.826.826,0,0,0,0-1.651Zm0-3.915h-2.016a.819.819,0,0,0-.825.825.836.836,0,0,0,.825.845h2.016a.835.835,0,0,0,.825-.845A.819.819,0,0,0,815.584,833.154Zm15.318-5.892a7.965,7.965,0,1,0,7.966,7.965A7.97,7.97,0,0,0,830.9,827.262Zm-4.223,9.98a2.063,2.063,0,1,1,2.054-2.054A2.056,2.056,0,0,1,826.679,837.242Zm4.127,3.839a2.054,2.054,0,1,1,2.054-2.054A2.073,2.073,0,0,1,830.806,841.081Zm0-7.62a2.063,2.063,0,1,1,2.054-2.073A2.076,2.076,0,0,1,830.806,833.461Zm4.28,3.781a2.063,2.063,0,1,1,2.054-2.054A2.061,2.061,0,0,1,835.086,837.242Zm-4.184-9.98a7.965,7.965,0,1,0,7.966,7.965A7.97,7.97,0,0,0,830.9,827.262Zm-4.223,9.98a2.063,2.063,0,1,1,2.054-2.054A2.056,2.056,0,0,1,826.679,837.242Zm4.127,3.839a2.054,2.054,0,1,1,2.054-2.054A2.073,2.073,0,0,1,830.806,841.081Zm0-7.62a2.063,2.063,0,1,1,2.054-2.073A2.076,2.076,0,0,1,830.806,833.461Zm4.28,3.781a2.063,2.063,0,1,1,2.054-2.054A2.061,2.061,0,0,1,835.086,837.242Zm-19.5-4.088h-2.016a.819.819,0,0,0-.825.825.836.836,0,0,0,.825.845h2.016a.835.835,0,0,0,.825-.845A.819.819,0,0,0,815.584,833.154Zm0,3.915h-2.016a.826.826,0,0,0,0,1.651h2.016a.826.826,0,0,0,0-1.651Zm-17.314-9.807a7.965,7.965,0,1,0,7.966,7.965A7.97,7.97,0,0,0,798.27,827.262Zm4.2,9.443h-2.706v2.706c0,.825-.653,1.228-1.478,1.228h-.019c-.826,0-1.5-.4-1.5-1.228v-2.706h-2.706c-.826,0-1.229-.672-1.229-1.5,0-.845.4-1.5,1.229-1.5h2.706V831c0-.825.672-1.228,1.5-1.228h.019c.825,0,1.478.4,1.478,1.228v2.707h2.706c.826,0,1.229.652,1.229,1.5C803.7,836.033,803.3,836.705,802.473,836.705Zm-4.2-9.443a7.965,7.965,0,1,0,7.966,7.965A7.97,7.97,0,0,0,798.27,827.262Zm4.2,9.443h-2.706v2.706c0,.825-.653,1.228-1.478,1.228h-.019c-.826,0-1.5-.4-1.5-1.228v-2.706h-2.706c-.826,0-1.229-.672-1.229-1.5,0-.845.4-1.5,1.229-1.5h2.706V831c0-.825.672-1.228,1.5-1.228h.019c.825,0,1.478.4,1.478,1.228v2.707h2.706c.826,0,1.229.652,1.229,1.5C803.7,836.033,803.3,836.705,802.473,836.705Zm13.111.364h-2.016a.826.826,0,0,0,0,1.651h2.016a.826.826,0,0,0,0-1.651Zm0-3.915h-2.016a.819.819,0,0,0-.825.825.836.836,0,0,0,.825.845h2.016a.835.835,0,0,0,.825-.845A.819.819,0,0,0,815.584,833.154Zm15.318-5.892a7.965,7.965,0,1,0,7.966,7.965A7.97,7.97,0,0,0,830.9,827.262Zm-4.223,9.98a2.063,2.063,0,1,1,2.054-2.054A2.056,2.056,0,0,1,826.679,837.242Zm4.127,3.839a2.054,2.054,0,1,1,2.054-2.054A2.073,2.073,0,0,1,830.806,841.081Zm0-7.62a2.063,2.063,0,1,1,2.054-2.073A2.076,2.076,0,0,1,830.806,833.461Zm4.28,3.781a2.063,2.063,0,1,1,2.054-2.054A2.061,2.061,0,0,1,835.086,837.242Zm-36.816-9.98a7.965,7.965,0,1,0,7.966,7.965A7.97,7.97,0,0,0,798.27,827.262Zm4.2,9.443h-2.706v2.706c0,.825-.653,1.228-1.478,1.228h-.019c-.826,0-1.5-.4-1.5-1.228v-2.706h-2.706c-.826,0-1.229-.672-1.229-1.5,0-.845.4-1.5,1.229-1.5h2.706V831c0-.825.672-1.228,1.5-1.228h.019c.825,0,1.478.4,1.478,1.228v2.707h2.706c.826,0,1.229.652,1.229,1.5C803.7,836.033,803.3,836.705,802.473,836.705Zm13.111.364h-2.016a.826.826,0,0,0,0,1.651h2.016a.826.826,0,0,0,0-1.651Zm0-3.915h-2.016a.819.819,0,0,0-.825.825.836.836,0,0,0,.825.845h2.016a.835.835,0,0,0,.825-.845A.819.819,0,0,0,815.584,833.154Zm15.318-5.892a7.965,7.965,0,1,0,7.966,7.965A7.97,7.97,0,0,0,830.9,827.262Zm-4.223,9.98a2.063,2.063,0,1,1,2.054-2.054A2.056,2.056,0,0,1,826.679,837.242Zm4.127,3.839a2.054,2.054,0,1,1,2.054-2.054A2.073,2.073,0,0,1,830.806,841.081Zm0-7.62a2.063,2.063,0,1,1,2.054-2.073A2.076,2.076,0,0,1,830.806,833.461Zm4.28,3.781a2.063,2.063,0,1,1,2.054-2.054A2.061,2.061,0,0,1,835.086,837.242Zm-4.184-9.98a7.965,7.965,0,1,0,7.966,7.965A7.97,7.97,0,0,0,830.9,827.262Zm-4.223,9.98a2.063,2.063,0,1,1,2.054-2.054A2.056,2.056,0,0,1,826.679,837.242Zm4.127,3.839a2.054,2.054,0,1,1,2.054-2.054A2.073,2.073,0,0,1,830.806,841.081Zm0-7.62a2.063,2.063,0,1,1,2.054-2.073A2.076,2.076,0,0,1,830.806,833.461Zm4.28,3.781a2.063,2.063,0,1,1,2.054-2.054A2.061,2.061,0,0,1,835.086,837.242Zm-19.5-4.088h-2.016a.819.819,0,0,0-.825.825.836.836,0,0,0,.825.845h2.016a.835.835,0,0,0,.825-.845A.819.819,0,0,0,815.584,833.154Zm0,3.915h-2.016a.826.826,0,0,0,0,1.651h2.016a.826.826,0,0,0,0-1.651Zm-17.314-9.807a7.965,7.965,0,1,0,7.966,7.965A7.97,7.97,0,0,0,798.27,827.262Zm4.2,9.443h-2.706v2.706c0,.825-.653,1.228-1.478,1.228h-.019c-.826,0-1.5-.4-1.5-1.228v-2.706h-2.706c-.826,0-1.229-.672-1.229-1.5,0-.845.4-1.5,1.229-1.5h2.706V831c0-.825.672-1.228,1.5-1.228h.019c.825,0,1.478.4,1.478,1.228v2.707h2.706c.826,0,1.229.652,1.229,1.5C803.7,836.033,803.3,836.705,802.473,836.705Zm-4.2-9.443a7.965,7.965,0,1,0,7.966,7.965A7.97,7.97,0,0,0,798.27,827.262Zm4.2,9.443h-2.706v2.706c0,.825-.653,1.228-1.478,1.228h-.019c-.826,0-1.5-.4-1.5-1.228v-2.706h-2.706c-.826,0-1.229-.672-1.229-1.5,0-.845.4-1.5,1.229-1.5h2.706V831c0-.825.672-1.228,1.5-1.228h.019c.825,0,1.478.4,1.478,1.228v2.707h2.706c.826,0,1.229.652,1.229,1.5C803.7,836.033,803.3,836.705,802.473,836.705Zm13.111.364h-2.016a.826.826,0,0,0,0,1.651h2.016a.826.826,0,0,0,0-1.651Zm0-3.915h-2.016a.819.819,0,0,0-.825.825.836.836,0,0,0,.825.845h2.016a.835.835,0,0,0,.825-.845A.819.819,0,0,0,815.584,833.154Zm15.318-5.892a7.965,7.965,0,1,0,7.966,7.965A7.97,7.97,0,0,0,830.9,827.262Zm-4.223,9.98a2.063,2.063,0,1,1,2.054-2.054A2.056,2.056,0,0,1,826.679,837.242Zm4.127,3.839a2.054,2.054,0,1,1,2.054-2.054A2.073,2.073,0,0,1,830.806,841.081Zm0-7.62a2.063,2.063,0,1,1,2.054-2.073A2.076,2.076,0,0,1,830.806,833.461Zm4.28,3.781a2.063,2.063,0,1,1,2.054-2.054A2.061,2.061,0,0,1,835.086,837.242Zm-4.184-9.98a7.965,7.965,0,1,0,7.966,7.965A7.97,7.97,0,0,0,830.9,827.262Zm-4.223,9.98a2.063,2.063,0,1,1,2.054-2.054A2.056,2.056,0,0,1,826.679,837.242Zm4.127,3.839a2.054,2.054,0,1,1,2.054-2.054A2.073,2.073,0,0,1,830.806,841.081Zm0-7.62a2.063,2.063,0,1,1,2.054-2.073A2.076,2.076,0,0,1,830.806,833.461Zm4.28,3.781a2.063,2.063,0,1,1,2.054-2.054A2.061,2.061,0,0,1,835.086,837.242Zm-19.5-4.088h-2.016a.819.819,0,0,0-.825.825.836.836,0,0,0,.825.845h2.016a.835.835,0,0,0,.825-.845A.819.819,0,0,0,815.584,833.154Zm0,3.915h-2.016a.826.826,0,0,0,0,1.651h2.016a.826.826,0,0,0,0-1.651Zm-17.314-9.807a7.965,7.965,0,1,0,7.966,7.965A7.97,7.97,0,0,0,798.27,827.262Zm4.2,9.443h-2.706v2.706c0,.825-.653,1.228-1.478,1.228h-.019c-.826,0-1.5-.4-1.5-1.228v-2.706h-2.706c-.826,0-1.229-.672-1.229-1.5,0-.845.4-1.5,1.229-1.5h2.706V831c0-.825.672-1.228,1.5-1.228h.019c.825,0,1.478.4,1.478,1.228v2.707h2.706c.826,0,1.229.652,1.229,1.5C803.7,836.033,803.3,836.705,802.473,836.705Zm-4.2-9.443a7.965,7.965,0,1,0,7.966,7.965A7.97,7.97,0,0,0,798.27,827.262Zm4.2,9.443h-2.706v2.706c0,.825-.653,1.228-1.478,1.228h-.019c-.826,0-1.5-.4-1.5-1.228v-2.706h-2.706c-.826,0-1.229-.672-1.229-1.5,0-.845.4-1.5,1.229-1.5h2.706V831c0-.825.672-1.228,1.5-1.228h.019c.825,0,1.478.4,1.478,1.228v2.707h2.706c.826,0,1.229.652,1.229,1.5C803.7,836.033,803.3,836.705,802.473,836.705Zm13.111.364h-2.016a.826.826,0,0,0,0,1.651h2.016a.826.826,0,0,0,0-1.651Zm0-3.915h-2.016a.819.819,0,0,0-.825.825.836.836,0,0,0,.825.845h2.016a.835.835,0,0,0,.825-.845A.819.819,0,0,0,815.584,833.154Zm15.318-5.892a7.965,7.965,0,1,0,7.966,7.965A7.97,7.97,0,0,0,830.9,827.262Zm-4.223,9.98a2.063,2.063,0,1,1,2.054-2.054A2.056,2.056,0,0,1,826.679,837.242Zm4.127,3.839a2.054,2.054,0,1,1,2.054-2.054A2.073,2.073,0,0,1,830.806,841.081Zm0-7.62a2.063,2.063,0,1,1,2.054-2.073A2.076,2.076,0,0,1,830.806,833.461Zm4.28,3.781a2.063,2.063,0,1,1,2.054-2.054A2.061,2.061,0,0,1,835.086,837.242Zm-4.184-9.98a7.965,7.965,0,1,0,7.966,7.965A7.97,7.97,0,0,0,830.9,827.262Zm-4.223,9.98a2.063,2.063,0,1,1,2.054-2.054A2.056,2.056,0,0,1,826.679,837.242Zm4.127,3.839a2.054,2.054,0,1,1,2.054-2.054A2.073,2.073,0,0,1,830.806,841.081Zm0-7.62a2.063,2.063,0,1,1,2.054-2.073A2.076,2.076,0,0,1,830.806,833.461Zm4.28,3.781a2.063,2.063,0,1,1,2.054-2.054A2.061,2.061,0,0,1,835.086,837.242Zm-19.5-4.088h-2.016a.819.819,0,0,0-.825.825.836.836,0,0,0,.825.845h2.016a.835.835,0,0,0,.825-.845A.819.819,0,0,0,815.584,833.154Zm0,3.915h-2.016a.826.826,0,0,0,0,1.651h2.016a.826.826,0,0,0,0-1.651Zm-17.314-9.807a7.965,7.965,0,1,0,7.966,7.965A7.97,7.97,0,0,0,798.27,827.262Zm4.2,9.443h-2.706v2.706c0,.825-.653,1.228-1.478,1.228h-.019c-.826,0-1.5-.4-1.5-1.228v-2.706h-2.706c-.826,0-1.229-.672-1.229-1.5,0-.845.4-1.5,1.229-1.5h2.706V831c0-.825.672-1.228,1.5-1.228h.019c.825,0,1.478.4,1.478,1.228v2.707h2.706c.826,0,1.229.652,1.229,1.5C803.7,836.033,803.3,836.705,802.473,836.705Zm-4.2-9.443a7.965,7.965,0,1,0,7.966,7.965A7.97,7.97,0,0,0,798.27,827.262Zm4.2,9.443h-2.706v2.706c0,.825-.653,1.228-1.478,1.228h-.019c-.826,0-1.5-.4-1.5-1.228v-2.706h-2.706c-.826,0-1.229-.672-1.229-1.5,0-.845.4-1.5,1.229-1.5h2.706V831c0-.825.672-1.228,1.5-1.228h.019c.825,0,1.478.4,1.478,1.228v2.707h2.706c.826,0,1.229.652,1.229,1.5C803.7,836.033,803.3,836.705,802.473,836.705Zm-4.2-9.443a7.965,7.965,0,1,0,7.966,7.965A7.97,7.97,0,0,0,798.27,827.262Zm4.2,9.443h-2.706v2.706c0,.825-.653,1.228-1.478,1.228h-.019c-.826,0-1.5-.4-1.5-1.228v-2.706h-2.706c-.826,0-1.229-.672-1.229-1.5,0-.845.4-1.5,1.229-1.5h2.706V831c0-.825.672-1.228,1.5-1.228h.019c.825,0,1.478.4,1.478,1.228v2.707h2.706c.826,0,1.229.652,1.229,1.5C803.7,836.033,803.3,836.705,802.473,836.705Z"/><path class="a" d="M816.409,837.9a.819.819,0,0,1-.825.825h-2.016a.826.826,0,0,1,0-1.651h2.016A.819.819,0,0,1,816.409,837.9Z"/><path class="a" d="M812.743,833.979a.819.819,0,0,1,.825-.825h2.016a.819.819,0,0,1,.825.825.835.835,0,0,1-.825.845h-2.016A.836.836,0,0,1,812.743,833.979Z"/><path class="a" d="M816.409,837.9a.819.819,0,0,1-.825.825h-2.016a.826.826,0,0,1,0-1.651h2.016A.819.819,0,0,1,816.409,837.9Z"/><path class="a" d="M816.409,833.979a.835.835,0,0,1-.825.845h-2.016a.836.836,0,0,1-.825-.845.819.819,0,0,1,.825-.825h2.016A.819.819,0,0,1,816.409,833.979Z"/></g></svg>