<svg xmlns="http://www.w3.org/2000/svg" width="56.562" height="56.562" viewBox="0 0 56.562 56.562"><defs><style>.a,.b{fill:#fff;}.a{stroke:#fff;}</style></defs><g transform="translate(0 -1.001)"><g transform="translate(0 1.001)"><path class="a" d="M180.56,37.207a19.7,19.7,0,1,0,11.8,22.033A19.7,19.7,0,0,0,180.56,37.207Zm8.858,24.939a17.677,17.677,0,1,1-28.85-19.239h0a17.677,17.677,0,0,1,28.85,19.239Z" transform="translate(-138.264 -33.745)"/><path class="b" d="M50.207,7.356A21.7,21.7,0,0,0,17.653,35.909l-1.666,1.666a1.879,1.879,0,0,0-1.815.481L2.163,50.065a1.879,1.879,0,0,0-.481,1.815l-.854.854a2.827,2.827,0,0,0,0,4l.666-.667-.664.669a2.827,2.827,0,0,0,4,0l.854-.854A1.833,1.833,0,0,0,7.5,55.4L19.507,43.391a1.878,1.878,0,0,0,.481-1.815l1.666-1.666A21.7,21.7,0,0,0,50.207,7.356ZM3.5,55.4a.964.964,0,0,1-1.332,0l0,0h0a.941.941,0,0,1,0-1.332L2.83,53.4l1.335,1.335ZM16.839,43.394l-2.67-2.67L15.5,39.388h0l1.334,1.334,1.335,1.335Zm2-3.335-.668-.668-.668-.668,1.369-1.369c.213.233.409.476.634.7s.469.421.7.634Zm23.592.959a19.812,19.812,0,1,1,12.23-18.3A19.812,19.812,0,0,1,42.432,41.017Z" transform="translate(0 -1.001)"/><path class="b" d="M232.188,111.075a1.887,1.887,0,0,0-1.885,1.885v4.712h-1.885v-8.482a1.887,1.887,0,0,0-1.885-1.885h-2.827a1.887,1.887,0,0,0-1.885,1.885v8.482h-1.885V105.421a1.887,1.887,0,0,0-1.885-1.885h-2.827a1.887,1.887,0,0,0-1.885,1.885v13.194a.942.942,0,0,0,.942.942h21.676a.942.942,0,0,0,.942-.942V112.96a1.887,1.887,0,0,0-1.885-1.885h-2.827Zm-14.136,6.6h-2.827V105.421h2.829Zm8.482,0h-2.827v-8.482h2.829Zm8.482,0h-2.827V112.96h2.829Z" transform="translate(-189.778 -90.212)"/></g></g></svg>