<svg xmlns="http://www.w3.org/2000/svg" width="46.138" height="41.217" viewBox="0 0 46.138 41.217"><defs><style>.a,.c{fill:#fff;}.b{opacity:0.1;}.c{opacity:0.2;}.d{fill:#e65a24;}</style></defs><g transform="translate(0 -27.304)"><path class="a" d="M39.986,27.3H6.152A6.211,6.211,0,0,0,0,33.573V56.3a6.211,6.211,0,0,0,6.152,6.269h.725l2.93,5.172a1.524,1.524,0,0,0,2.664,0l2.93-5.172H39.986A6.211,6.211,0,0,0,46.138,56.3V33.573A6.211,6.211,0,0,0,39.986,27.3Z" transform="translate(0 0)"/><path class="b" d="M2.963,56.3V33.573A6.211,6.211,0,0,1,9.114,27.3H6.152A6.211,6.211,0,0,0,0,33.573V56.3a6.211,6.211,0,0,0,6.152,6.269h.725S2.963,59.759,2.963,56.3Z"/><path class="c" d="M413.821,27.3h-2.963a6.211,6.211,0,0,1,6.152,6.269V56.3a6.211,6.211,0,0,1-6.152,6.269h2.963a6.211,6.211,0,0,0,6.152-6.269V33.573A6.211,6.211,0,0,0,413.821,27.3Z" transform="translate(-373.834 0)"/><path class="d" d="M146.652,108.659a1.943,1.943,0,1,0,0-3.885H143.7l.545-3.089a1.943,1.943,0,0,0-3.826-.675l-.664,3.764h-3.874l.545-3.089a1.943,1.943,0,0,0-3.826-.675l-.664,3.764h-3.639a1.943,1.943,0,1,0,0,3.885h2.954l-.685,3.885h-3.64a1.943,1.943,0,1,0,0,3.885h2.954l-.518,2.938a1.943,1.943,0,1,0,3.826.675l.637-3.613H137.7l-.518,2.938a1.943,1.943,0,1,0,3.826.675l.637-3.613h3.639a1.943,1.943,0,0,0,0-3.885h-2.954l.685-3.885h3.639Zm-8.27,3.885h-3.874l.685-3.885h3.874Z" transform="translate(-113.719 -65.603)"/></g></svg>