<svg xmlns="http://www.w3.org/2000/svg" width="35.151" height="35.15" viewBox="0 0 35.151 35.15"><defs><style>.a{fill:#fff;}</style></defs><g transform="translate(-998.309 -1155.197)"><path class="a" d="M1023.314,1155.2h-14.86a10.146,10.146,0,0,0-10.145,10.145v14.86a10.146,10.146,0,0,0,10.145,10.145h14.86a10.145,10.145,0,0,0,10.146-10.145v-14.86a10.145,10.145,0,0,0-10.146-10.145m6.909,25.265a6.735,6.735,0,0,1-6.735,6.736h-15.206a6.735,6.735,0,0,1-6.735-6.736v-15.206a6.734,6.734,0,0,1,6.735-6.734h15.206a6.734,6.734,0,0,1,6.735,6.734Z"/><path class="a" d="M1015.885,1163.74a9.12,9.12,0,1,0,9.121,9.119,9.12,9.12,0,0,0-9.121-9.119m0,15.032a5.912,5.912,0,1,1,5.913-5.913,5.912,5.912,0,0,1-5.913,5.913"/><path class="a" d="M1025.31,1161.268a2.125,2.125,0,1,0,2.124,2.124,2.123,2.123,0,0,0-2.124-2.124"/></g></svg>