<svg xmlns="http://www.w3.org/2000/svg" width="55.871" height="47.452" viewBox="0 0 55.871 47.452"><defs><style>.a{fill:#fff;}</style></defs><g transform="translate(0 -36.671)"><g transform="translate(0 36.671)"><path class="a" d="M33,309.347V318.4a1.012,1.012,0,0,0,1.01,1.01h7a1.012,1.012,0,0,0,1.01-1.01V302.471l-5.085,5.085A6.168,6.168,0,0,1,33,309.347Z" transform="translate(-29.212 -271.961)"/><path class="a" d="M142,301.471v16.047a1.012,1.012,0,0,0,1.01,1.01h7a1.012,1.012,0,0,0,1.01-1.01v-9.447a6.1,6.1,0,0,1-4.213-1.791Z" transform="translate(-125.7 -271.076)"/><path class="a" d="M251,282.2v10.445a1.012,1.012,0,0,0,1.01,1.01h7a1.012,1.012,0,0,0,1.01-1.01V273.371L252,281.395A6.011,6.011,0,0,1,251,282.2Z" transform="translate(-222.189 -246.201)"/><path class="a" d="M368.345,170.171,360,178.516v22.774a1.012,1.012,0,0,0,1.01,1.01h7a1.012,1.012,0,0,0,1.01-1.01V170.8c-.23-.2-.4-.367-.528-.482Z" transform="translate(-318.677 -154.847)"/><path class="a" d="M55.4,37.21a1.951,1.951,0,0,0-1.481-.539h-.184c-3.26.149-6.508.31-9.768.459a2.108,2.108,0,0,0-1.5.517,1.711,1.711,0,0,0-.356.528,1.688,1.688,0,0,0,.517,2.043l.815.826c.562.574,1.136,1.148,1.71,1.71l-19.7,19.709-8.85-8.85a2.813,2.813,0,0,0-3.983,0L.826,65.39a2.813,2.813,0,0,0,0,3.983l.528.528a2.813,2.813,0,0,0,3.983,0L14.6,60.638l8.85,8.85a2.827,2.827,0,0,0,3.995,0L49.668,47.266l2.514,2.5a1.9,1.9,0,0,0,1.343.712,1.662,1.662,0,0,0,.8-.218,2.186,2.186,0,0,0,.482-.356,2.334,2.334,0,0,0,.608-1.618c.092-2.112.2-4.224.3-6.348l.149-3.18A1.975,1.975,0,0,0,55.4,37.21Z" transform="translate(0 -36.671)"/></g></g></svg>