<svg xmlns="http://www.w3.org/2000/svg" width="48.666" height="58.846" viewBox="0 0 48.666 58.846"><defs><style>.a{fill:#fff;}</style></defs><g transform="translate(-522.92 -955.09)"><path class="a" d="M527.629,985a1.392,1.392,0,0,1-1.13-1.613l.847-4.8-.686-.12a4.531,4.531,0,0,1-3.671-5.242l2.539-14.4a4.531,4.531,0,0,1,5.243-3.671l33.94,5.984a4.53,4.53,0,0,1,3.671,5.242l-2.539,14.4a4.53,4.53,0,0,1-5.243,3.67l-25.144-4.433-6.787,4.752A1.39,1.39,0,0,1,527.629,985Zm2.658-27.1a1.742,1.742,0,0,0-2.017,1.411l-2.538,14.4a1.741,1.741,0,0,0,1.411,2.016l2.057.363a1.392,1.392,0,0,1,1.13,1.613l-.5,2.86,4.505-3.154a1.392,1.392,0,0,1,1.04-.231l25.713,4.533A1.741,1.741,0,0,0,563.1,980.3l2.539-14.4a1.742,1.742,0,0,0-1.412-2.016Z"/><path class="a" d="M554.226,968.484l-21.942-3.868a1.393,1.393,0,0,1,.484-2.743l21.941,3.869a1.392,1.392,0,1,1-.483,2.742Z"/><path class="a" d="M548.217,974.493l-11.656-2.055a1.392,1.392,0,1,1,.483-2.742l11.657,2.055a1.392,1.392,0,1,1-.484,2.742Z"/><path class="a" d="M570.988,993.079a3.279,3.279,0,0,0-2.131-1.353l-29.821-5.257a3.6,3.6,0,0,0-.575-.047,3.3,3.3,0,0,0-3.252,2.722l-2.162,12.334a3.289,3.289,0,0,0,2.66,3.826l21.545,3.795,2.862,4.091a1.73,1.73,0,0,0,3.127-.685l.4-2.286,1.9.342a3.608,3.608,0,0,0,.576.047,3.274,3.274,0,0,0,3.236-2.722l2.177-12.334A3.255,3.255,0,0,0,570.988,993.079Zm-29.354,6.735a1.379,1.379,0,0,1,1.6-1.12l19.9,3.5a1.4,1.4,0,0,1,1.12,1.618,1.378,1.378,0,0,1-1.6,1.12l-19.9-3.5A1.394,1.394,0,0,1,541.634,999.814Zm9.878-3.9a1.394,1.394,0,0,1,1.618-1.136l8.229,1.447a1.4,1.4,0,0,1-.5,2.753l-8.213-1.462A1.379,1.379,0,0,1,551.512,995.91Z"/></g></svg>