<svg xmlns="http://www.w3.org/2000/svg" width="52.325" height="52.259" viewBox="0 0 52.325 52.259"><defs><style>.a{fill:#fff;}</style></defs><g transform="translate(0 -0.038)"><path class="a" d="M56.192,24.364A26.2,26.2,0,0,0,31.93.1L31,.038V25.294H56.256Zm-23.45-.812V1.92a24.1,24.1,0,0,1,6.182,1.509.748.748,0,0,0-.017.088.871.871,0,0,0,.871.871.861.861,0,0,0,.65-.3,24.592,24.592,0,0,1,10.411,9.266.907.907,0,1,0,.2.3,24.367,24.367,0,0,1,1.211,2.3.867.867,0,0,0,.595,1.5c.018,0,.034-.01.053-.01a24.115,24.115,0,0,1,1.477,6.108H32.742Z" transform="translate(-3.997)"/><path class="a" d="M31.318,31.032,48.824,48.538l.615-.667A26.179,26.179,0,0,0,56.3,31.962l.064-.93Zm17.443,14.98L35.524,32.774H54.48A24.459,24.459,0,0,1,48.761,46.012Z" transform="translate(-4.038 -3.996)"/><circle class="a" cx="0.871" cy="0.871" r="0.871" transform="translate(29.683 2.646)"/><circle class="a" cx="0.871" cy="0.871" r="0.871" transform="translate(29.683 7.872)"/><circle class="a" cx="0.871" cy="0.871" r="0.871" transform="translate(32.296 5.259)"/><circle class="a" cx="0.871" cy="0.871" r="0.871" transform="translate(37.522 5.259)"/><circle class="a" cx="0.871" cy="0.871" r="0.871" transform="translate(34.909 7.872)"/><circle class="a" cx="0.871" cy="0.871" r="0.871" transform="translate(40.135 7.872)"/><circle class="a" cx="0.871" cy="0.871" r="0.871" transform="translate(42.749 10.486)"/><circle class="a" cx="0.871" cy="0.871" r="0.871" transform="translate(32.296 10.486)"/><circle class="a" cx="0.871" cy="0.871" r="0.871" transform="translate(37.522 10.486)"/><circle class="a" cx="0.871" cy="0.871" r="0.871" transform="translate(42.749 15.712)"/><circle class="a" cx="0.871" cy="0.871" r="0.871" transform="translate(45.362 18.325)"/><circle class="a" cx="0.871" cy="0.871" r="0.871" transform="translate(29.683 13.099)"/><circle class="a" cx="0.871" cy="0.871" r="0.871" transform="translate(29.683 18.325)"/><circle class="a" cx="0.871" cy="0.871" r="0.871" transform="translate(32.296 15.712)"/><circle class="a" cx="0.871" cy="0.871" r="0.871" transform="translate(37.522 15.712)"/><circle class="a" cx="0.871" cy="0.871" r="0.871" transform="translate(34.909 13.099)"/><circle class="a" cx="0.871" cy="0.871" r="0.871" transform="translate(40.135 13.099)"/><circle class="a" cx="0.871" cy="0.871" r="0.871" transform="translate(34.909 18.325)"/><circle class="a" cx="0.871" cy="0.871" r="0.871" transform="translate(40.135 18.325)"/><circle class="a" cx="0.871" cy="0.871" r="0.871" transform="translate(47.975 20.938)"/><circle class="a" cx="0.871" cy="0.871" r="0.871" transform="translate(42.749 20.938)"/><circle class="a" cx="0.871" cy="0.871" r="0.871" transform="translate(32.296 20.938)"/><circle class="a" cx="0.871" cy="0.871" r="0.871" transform="translate(37.522 20.938)"/><path class="a" d="M25.261.038,24.331.1a26.12,26.12,0,0,0-17.9,43.22l.613.7L25.261,25.8Z"/><path class="a" d="M9.5,49.38l.7.613a26.1,26.1,0,0,0,33.737.483l.741-.61L26.846,32.032ZM26.846,34.5l.959.959L13.164,50.095c-.371-.267-.746-.526-1.1-.814ZM19.69,53.425q-.908-.3-1.788-.676l13.6-13.6,1.232,1.232ZM33.965,41.614,35.2,42.845,23.66,54.383q-1.039-.159-2.057-.407ZM16.224,51.964q-.8-.413-1.577-.888l14.39-14.39,1.233,1.233Zm9.665,2.653,10.539-10.54,1.232,1.232L28.33,54.64c-.324.013-.647.04-.973.04C26.865,54.68,26.378,54.647,25.889,54.617Zm13-8.076,1.233,1.233-5.891,5.891a24.386,24.386,0,0,1-3.187.723ZM38.3,52.064,41.357,49l.721.721A24.3,24.3,0,0,1,38.3,52.064Z" transform="translate(-1.225 -4.125)"/></g></svg>