<svg xmlns="http://www.w3.org/2000/svg" width="53.195" height="51.541" viewBox="0 0 53.195 51.541"><defs><style>.a{fill:#fff;}</style></defs><g transform="translate(0 -4.549)"><g transform="translate(0.001 4.549)"><path class="a" d="M5.566,51.137a5.866,5.866,0,0,0,5.778,4.953,5.885,5.885,0,0,0,.922-.073l8.024-1.261a5.72,5.72,0,0,0,.983.089,5.883,5.883,0,0,0,.922-.072l.727-.115a4.886,4.886,0,0,0,2.094.485H48.281A4.916,4.916,0,0,0,53.2,50.228V14.84a4.915,4.915,0,0,0-4.914-4.915H44.63L44.564,9.5a5.86,5.86,0,0,0-6.7-4.879L28.011,6.17,4.951,9.478a5.867,5.867,0,0,0-4.879,6.7ZM45.335,28.619s.108,5.853-7.377,12.062a2.567,2.567,0,0,1-3.1,0c-7.431-6.208-6.89-12.059-6.89-12.059a4.75,4.75,0,0,1,8.683-2.666,4.751,4.751,0,0,1,8.684,2.666ZM15.173,10.1,38.157,6.489A3.97,3.97,0,0,1,42.695,9.8l.019.129h-17.7A4.916,4.916,0,0,0,20.1,14.84V50.228a4.859,4.859,0,0,0,.722,2.53l-.492.077A3.971,3.971,0,0,1,17.362,49.6L11.868,14.639A3.974,3.974,0,0,1,15.173,10.1ZM5.232,11.347l5.878-.843A5.835,5.835,0,0,0,10,14.932l5.493,34.96a5.808,5.808,0,0,0,1.838,3.414l-5.361.843a3.971,3.971,0,0,1-4.538-3.306L1.939,15.883A3.974,3.974,0,0,1,5.232,11.347Z" transform="translate(-0.001 -4.549)"/></g></g></svg>