<svg xmlns="http://www.w3.org/2000/svg" width="53.021" height="56.977" viewBox="0 0 53.021 56.977"><defs><style>.a{fill:#fff;}.b{fill:#fff5f5;}.c{fill:#e5e5e5;}</style></defs><g transform="translate(-20 -20)"><path class="a" d="M25.4,246.916a1.271,1.271,0,1,1-1.271-1.271A1.271,1.271,0,0,1,25.4,246.916Zm-.508-13.373H24.1A4.133,4.133,0,0,0,20,237.2a.418.418,0,0,0,.415.465H22.1a.416.416,0,0,0,.409-.327,1.626,1.626,0,0,1,1.59-1.3h.784a1.623,1.623,0,0,1,1.623,1.624v.047a1.612,1.612,0,0,1-.889,1.448,5.013,5.013,0,0,0-2.8,4.5v.6a.417.417,0,0,0,.418.417h1.669a.418.418,0,0,0,.418-.417v-.6a2.528,2.528,0,0,1,1.409-2.256,4.127,4.127,0,0,0,2.276-3.689v-.047a4.127,4.127,0,0,0-4.127-4.127Zm0,0" transform="translate(0 -188.813)"/><path class="b" d="M405.4,253.373a1.271,1.271,0,1,1-1.271-1.271A1.271,1.271,0,0,1,405.4,253.373ZM404.888,240H404.1a4.133,4.133,0,0,0-4.1,3.662.418.418,0,0,0,.415.465h1.687a.416.416,0,0,0,.409-.327,1.626,1.626,0,0,1,1.59-1.3h.784a1.623,1.623,0,0,1,1.623,1.623v.047a1.611,1.611,0,0,1-.889,1.448,5.015,5.015,0,0,0-2.8,4.5v.6a.417.417,0,0,0,.418.418h1.669a.418.418,0,0,0,.418-.418v-.6a2.528,2.528,0,0,1,1.409-2.255,4.127,4.127,0,0,0,2.276-3.689v-.047A4.127,4.127,0,0,0,404.888,240Zm0,0" transform="translate(-335.994 -194.522)"/><path class="a" d="M255.015,31.453v.131A11.452,11.452,0,0,1,248.7,41.82a7.018,7.018,0,0,0-3.911,6.259v1.66A1.158,1.158,0,0,1,243.63,50.9H239a1.158,1.158,0,0,1-1.158-1.158v-1.66A13.912,13.912,0,0,1,245.6,35.6a4.471,4.471,0,0,0,2.469-4.018v-.131a4.5,4.5,0,0,0-4.5-4.5h-2.176a4.512,4.512,0,0,0-4.413,3.6,1.152,1.152,0,0,1-1.135.907h-4.682a1.16,1.16,0,0,1-1.152-1.29A11.47,11.47,0,0,1,241.386,20h2.176A11.453,11.453,0,0,1,255.015,31.453Zm0,0" transform="translate(-185.679 0)"/><path class="c" d="M243.866,20a11.466,11.466,0,0,0-11.153,11.449h-1.553a1.159,1.159,0,0,1-1.151-1.29A11.469,11.469,0,0,1,241.39,20h2.176c.1,0,.2,0,.3,0Zm2.476,6.944h-2.176c-.1,0-.2,0-.3.011a4.5,4.5,0,0,1,4.2,4.493v.131A4.471,4.471,0,0,1,245.6,35.6a13.912,13.912,0,0,0-7.758,12.477v1.66A1.158,1.158,0,0,0,239,50.9h1.619V48.079a13.326,13.326,0,0,1,2.121-7.233c2.085-3.272,7.875-3.272,8.106-9.262v-.131a4.5,4.5,0,0,0-4.5-4.5Zm-4.9,26.635a3.528,3.528,0,1,0,3.528,3.528A3.528,3.528,0,0,0,241.447,53.584Zm0,0" transform="translate(-185.683)"/><path class="a" d="M327.741,315.949a2.27,2.27,0,1,1-2.066-3.21A3.527,3.527,0,0,1,327.741,315.949Zm0,0" transform="translate(-268.45 -258.837)"/><path class="a" d="M129.839,253.514v.1a8.722,8.722,0,0,1-4.81,7.795,5.343,5.343,0,0,0-2.978,4.766v1.264a.882.882,0,0,1-.882.882h-3.528a.882.882,0,0,1-.882-.882v-1.264a10.594,10.594,0,0,1,5.907-9.5,3.4,3.4,0,0,0,1.88-3.06v-.1a3.43,3.43,0,0,0-3.43-3.43h-1.657a3.436,3.436,0,0,0-3.36,2.74.877.877,0,0,1-.864.69h-3.565a.883.883,0,0,1-.877-.983,8.733,8.733,0,0,1,8.666-7.738h1.657a8.721,8.721,0,0,1,8.721,8.721Zm0,0" transform="translate(-80.276 -198.761)"/><path class="c" d="M122.191,273.051a2.686,2.686,0,1,1-2.686-2.686A2.686,2.686,0,0,1,122.191,273.051Zm-1.073-28.258h-1.657a8.733,8.733,0,0,0-8.666,7.738.883.883,0,0,0,.877.983h1.182a8.732,8.732,0,0,1,8.492-8.718Zm2.114,5.291h-1.657c-.077,0-.153,0-.229.008a3.429,3.429,0,0,1,3.2,3.422v.1a3.4,3.4,0,0,1-1.88,3.06,10.594,10.594,0,0,0-5.907,9.5v1.264a.882.882,0,0,0,.882.882h1.232v-2.146a10.145,10.145,0,0,1,1.615-5.508c1.587-2.491,6-2.491,6.173-7.052v-.1a3.43,3.43,0,0,0-3.43-3.43Zm0,0" transform="translate(-80.276 -198.76)"/><path class="a" d="M185.213,470.14a2.686,2.686,0,0,1-1.573,2.445,2.686,2.686,0,0,1,0-4.889A2.687,2.687,0,0,1,185.213,470.14Zm0,0" transform="translate(-143.298 -395.85)"/></g></svg>