<svg xmlns="http://www.w3.org/2000/svg" width="52.932" height="52.932" viewBox="0 0 52.932 52.932"><defs><style>.a{fill:#fff;}</style></defs><g transform="translate(0 0)"><path class="a" d="M231.072,213.962a17.162,17.162,0,0,0-9.412-15.282,23.338,23.338,0,0,1-22.98,22.98,17.115,17.115,0,0,0,23.988,7.033L231,231l-2.3-8.329a17.048,17.048,0,0,0,2.379-8.706Zm0,0" transform="translate(-178.14 -178.14)"/><path class="a" d="M40.422,20.211A20.211,20.211,0,1,0,2.8,30.484L.074,40.348,9.938,37.62A20.215,20.215,0,0,0,40.422,20.211Zm-23.313-4.7h-3.1A6.2,6.2,0,1,1,24.4,20.085L21.762,22.5v2.419h-3.1V21.131L22.3,17.8a3.07,3.07,0,0,0,1.01-2.289,3.1,3.1,0,1,0-6.2,0ZM18.66,28.017h3.1v3.1h-3.1Zm0,0"/></g></svg>