<svg xmlns="http://www.w3.org/2000/svg" width="30" height="30" viewBox="0 0 30 30"><defs><style>.a{fill:none;}.b{fill:#fff;}</style></defs><g transform="translate(0 0)"><rect class="a" width="30" height="30"/><path class="b" d="M29.9,27.267l-6.206-6.206a12.875,12.875,0,0,0,2.633-7.9A13.083,13.083,0,0,0,13.164,0,13.083,13.083,0,0,0,0,13.164,13.083,13.083,0,0,0,13.164,26.327a12.875,12.875,0,0,0,7.9-2.633L27.267,29.9ZM3.761,13.164a9.311,9.311,0,0,1,9.4-9.4,9.311,9.311,0,0,1,9.4,9.4,9.311,9.311,0,0,1-9.4,9.4A9.311,9.311,0,0,1,3.761,13.164Z"/></g></svg>