<svg xmlns="http://www.w3.org/2000/svg" width="65.252" height="37.823" viewBox="0 0 65.252 37.823"><defs><style>.a{fill:#fff;}</style></defs><g transform="translate(0 -166.422)"><path class="a" d="M179.166,408.307,159.7,402.316v10.006c0,4.626,8.718,8.376,19.471,8.376s19.472-3.751,19.472-8.376c0-.036-.012-.073-.013-.109v-9.9Z" transform="translate(-146.54 -216.454)"/><path class="a" d="M0,178.974l6.954,2.488.593-1.269,2.555-.217.364.379-2.192.52-.32.946S3,192.171,3.729,197.234a6.386,6.386,0,0,0,6.18,0l.821-13.845v-1.152l4.6-1.037L15,182l-3.429,1.115,1.586.566,19.465,5.991,19.465-5.991,13.161-4.707L32.626,166.422Z" transform="translate(0 0)"/></g></svg>