<svg xmlns="http://www.w3.org/2000/svg" width="45.218" height="45.218" viewBox="0 0 45.218 45.218"><defs><style>.a{fill:#fff;}</style></defs><g transform="translate(0 0)"><path class="a" d="M43.893,3.264h-5.8q.032-.964.033-1.939A1.325,1.325,0,0,0,36.8,0H8.42A1.325,1.325,0,0,0,7.1,1.325q0,.974.032,1.939h-5.8A1.325,1.325,0,0,0,0,4.588,28.713,28.713,0,0,0,4.368,20.358c2.784,4.185,6.493,6.585,10.5,6.819a13.6,13.6,0,0,0,2.869,2.409v5.888H15.514a4.878,4.878,0,0,0-4.872,4.872v2.222h-.094a1.325,1.325,0,1,0,0,2.65H34.67a1.325,1.325,0,0,0,0-2.65h-.094V40.346A4.878,4.878,0,0,0,29.7,35.474H27.481V29.586a13.6,13.6,0,0,0,2.869-2.409c4.007-.234,7.715-2.634,10.5-6.819A28.712,28.712,0,0,0,45.218,4.588,1.325,1.325,0,0,0,43.893,3.264ZM6.574,18.89a25.532,25.532,0,0,1-3.9-12.977h4.6a44.27,44.27,0,0,0,4.115,16.071q.53,1.06,1.106,2A12.776,12.776,0,0,1,6.574,18.89Zm32.07,0a12.777,12.777,0,0,1-5.923,5.1q.575-.943,1.106-2A44.277,44.277,0,0,0,37.943,5.913h4.6A25.533,25.533,0,0,1,38.644,18.89Zm0,0"/></g></svg>