<svg xmlns="http://www.w3.org/2000/svg" width="48.362" height="48.37" viewBox="0 0 48.362 48.37"><defs><style>.a{fill:#fff;}</style></defs><g transform="translate(-0.004 0)"><g transform="translate(0.004)"><path class="a" d="M36.649,9.019l-.724.229-3.854.343L30.983,11.33l-.79-.251L27.126,8.314l-.445-1.438-.6-1.534L24.158,3.613l-2.274-.445-.052,1.041,2.228,2.174,1.09,1.284-1.226.64-1-.294-1.5-.624.051-1.206L19.52,5.377l-.651,2.835-1.977.448.2,1.581,2.576.5.445-2.527,2.126.314.988.579h1.586l1.085,2.174L28.772,14.2l-.211,1.135-2.32-.3L22.232,17.06l-2.887,3.463-.376,1.534H17.933L16,21.167l-1.875.89.467,1.978.816-.941,1.435-.045-.1,1.777,1.189.348,1.187,1.333,1.938-.545,2.214.35L25.844,27l1.284.151L29.3,29.625l4.2,2.471-2.717,5.192-2.868,1.333-1.089,2.967L22.681,44.36l-.442,1.6A24.153,24.153,0,0,0,36.649,9.019Z" transform="translate(7.618 1.71)"/><path class="a" d="M26.965,32.759,25.2,29.494l1.617-3.369L25.2,25.641l-1.815-1.823-4.022-.9-1.335-2.793v1.658h-.588l-3.466-4.7v-3.86l-2.54-4.131L7.4,9.811H4.686l-1.367-.9L5.063,7.532l-1.74.4A24.152,24.152,0,0,0,24.184,44.305a25.318,25.318,0,0,0,3.035-.211l-.253-2.93s1.11-4.351,1.11-4.5S26.965,32.759,26.965,32.759Z" transform="translate(-0.004 4.065)"/><path class="a" d="M7.051,7.8l4.3-.6,1.98-1.085,2.228.642,3.56-.2,1.219-1.917,1.778.293,4.319-.4,1.19-1.312L29.3,2.1l2.374.357.865-.131A24.105,24.105,0,0,0,3.6,8.793h.012ZM23.267,2.4l2.47-1.36,1.586.916-2.3,1.748-2.192.22-.987-.64Zm-7.315.2,1.09.454L18.469,2.6l.778,1.347-3.295.865-1.584-.927S15.916,2.891,15.952,2.6Z" transform="translate(1.934)"/></g></g></svg>